<svg xmlns="http://www.w3.org/2000/svg" width="3000" height="3000" viewBox="0 0 3000 3000"><defs><style>.cls-1{fill:#cadeff;}.cls-2{fill:#ffd894;}.cls-3{fill:#ffb3c5;}.cls-4{fill:#8fafff;}.cls-5{fill:#b6ffd3;}.cls-6{fill:#b994ff;}.cls-7{fill:#99ffe4;}.cls-8{fill:#ff83a6;}.cls-9{fill:#003472;}</style></defs><title>teamwork</title><g id="fill"><path class="cls-1" d="M1342.84,1695a84.24,84.24,0,0,1-1.78-14.15,72.4,72.4,0,0,0-1.43-11.17,39.24,39.24,0,0,0-3.24-10.07,57.92,57.92,0,0,1-4.59-14.33,55.56,55.56,0,0,0-3.13-10.67,75.35,75.35,0,0,1-4-13.86,51.63,51.63,0,0,1-1-15.45,31.83,31.83,0,0,0-.62-10.17,44.65,44.65,0,0,0-3.12-10.13l-.13-.31a64.15,64.15,0,0,1-4.31-14,95.59,95.59,0,0,1-1.9-13.8l-.16-1.66-.36-.59c-3-4.79-6.82-7.49-11.41-8a9.73,9.73,0,0,0-8.54,2.78c-4,4.14-4.95,12.2-3,24.62a5.33,5.33,0,0,1-.29,2.75l-.29.76.13.8c.08.49.16,1,.23,1.6.19,1.18.33,2.43.48,3.61l.52,5.17c.21,2.63.44,5.75.5,9a76.8,76.8,0,0,1-1.78,19.1,57.56,57.56,0,0,1-7.9,18.44,77.19,77.19,0,0,1-12.41,14.46,163.91,163.91,0,0,1-13.8,11.3,73.15,73.15,0,0,1-16.79,9.52,43.59,43.59,0,0,1-15.87,3c-1.76,0-3.47-.15-5.11-.28a67.12,67.12,0,0,1-18.88-5,92.9,92.9,0,0,1-16.29-8.86,118.52,118.52,0,0,1-14.22-11.29,95.72,95.72,0,0,1-12.26-13.8,65.89,65.89,0,0,1-5.19-8.28,74.66,74.66,0,0,1-3.79-8.71c-.23-.59-.42-1.19-.62-1.78l-.46-1.25c-1.45-4.28-2.61-8.38-3.74-12.34l-1-3.26-.28-.63a70.35,70.35,0,0,0-6.36-9.45c-10.08-12.29-25.79-18.08-43-15.87a5.42,5.42,0,0,1-1.55-.07l-.5-.08-.5.08-2.67.5-.76.14a59.7,59.7,0,0,0-12.17,3.61,78.65,78.65,0,0,1-15.61,4.64c-4.43.87-7,2.53-9.35,6.1a13.17,13.17,0,0,0-2.25,11c1.24,6.11,1.75,9.33,2.24,12.45l.27,1.63c.46,2.79.93,5.67,2,11,1.14,5.7,1.9,8.61,2.64,11.42l.29,1.13c.8,3.07,1.63,6.25,2.83,12.29a77.72,77.72,0,0,1,1.66,14.3,55,55,0,0,0,1.28,11.05,57.58,57.58,0,0,0,3.05,10.72,73.87,73.87,0,0,1,4,13.84,47.56,47.56,0,0,1,.76,15.81,27.94,27.94,0,0,0,.46,9.89c1.23,6.23,1.74,9.47,2.24,12.61l.25,1.54c.45,2.73.93,5.66,2,10.85a12.25,12.25,0,0,0,2.86,5.4l.4.41a45.69,45.69,0,0,0,9.74,6.27l1.87,1.09.69-.69a28,28,0,0,0,6-.56c6.9-1.38,10.38-1.94,13.46-2.44,3.29-.54,6.4-1.05,12.79-2.36a74.52,74.52,0,0,1,15.29-1.59,53.7,53.7,0,0,0,11.35-1.22,41.7,41.7,0,0,0,10.63-3.42,60.94,60.94,0,0,1,14.93-4.77,69.41,69.41,0,0,1,15.19-1.59,50.92,50.92,0,0,0,11.43-1.2,46.08,46.08,0,0,0,11-3.42,68,68,0,0,1,14.6-4.5c6.23-1.24,9.27-2.1,12.32-3,3.33-.93,6.78-1.9,13.59-3.27,5.24-1,8.25-1.71,11-2.31l1.94-.43c3.22-.74,6.59-1.51,13.18-2.84,6.41-1.28,10-1.74,13.15-2.14l.76-.1a124.79,124.79,0,0,0,12.46-2c6.35-1.26,9.69-1.86,12.89-2.44l2.51-.46c2.65-.49,5.74-1.06,10.79-2.08a14.68,14.68,0,0,0,10-6.41C1342.25,1702.3,1343.49,1698.37,1342.84,1695Zm-25.78-109.14Z"/><path class="cls-2" d="M1211.65,1256.9l-.38-.8-.75-.46c-1.31-.8-2.59-1.61-3.75-2.34-2.21-1.47-4.14-2.73-6.09-3.88-1.77-1.06-3.58-2.05-5.47-3.08l-7.05-3.58c-4.93-2.43-9.56-4.92-13.74-7.38-4.7-2.81-8.46-5-12.74-7.22l-13.15-6.58c-3-1.5-6.1-3-9.2-4.5-5.7-2.77-11.6-5.64-17.31-8.58l-.44-.24a7.45,7.45,0,0,1,3.41-14.08l.77-.11a18.34,18.34,0,0,0,2.89-1.07l.76-.51c2.37-2.16,3-5.06,2-8.62l-1-3.36-.24-.57c-3.64-6.73-7.89-14.73-11.73-23.07-2.76-6-4.93-12.17-7-18.13l-.13-.38c-1.83-5.27-3.73-10.72-6-15.87-3.73-8.35-7.94-16.7-12-24.78l-3.92-7.77c-1.28-2.56-2.54-5.13-3.79-7.69l-.24-.49c-4.1-8.37-8-16.28-12.57-23.42s-10.72-13.43-17.28-20.11c-2-2-3.92-4-5.78-6l-1.06-1.12c-2.75-2.48-6.5-5.38-11.18-5.86-6.55-.62-11.56,4-15.6,7.78l-1,.91a5.44,5.44,0,0,1-1.86,1.14l-.54.2-.43.39c-7.35,6.58-16.7,9.64-24.9,12.33l-1.41.44c-1.45.48-2.93,1-4.46,1.53-7.43,2.57-15.84,5.49-25.22,5.49-.66,0-1.28,0-2.05-.06a120.57,120.57,0,0,1-31.64-6.22c-8.41-2.74-15.61-7.43-22.56-12-1.76-1.15-3.54-2.3-5.32-3.42-2.59-1.63-5.59-3.17-8.46-4.62-6.29-3.19-13.42-6.8-18.88-12.71a122.3,122.3,0,0,1-13.82-17.65l-.48-.58c-.62-.58-1.25-1.15-1.89-1.7,0-.27,0-.55,0-.82V995l-.4-.69c-.9-1.56-1.73-3.14-2.49-4.71a82,82,0,0,1-3.36-8l-.2-.56-.4-.44c-.76-.83-1.51-1.72-2.31-2.65l-1.47-1.72c-4.18-4.86-12.9-3.87-21.69-2.06l-.33.09c-2.14.7-4.2,1.47-6.51,2.35-5.37,2-10.18,4-14.74,6-5.21,2.31-9.8,4.55-14,6.84-2.42,1.27-4.59,2.52-6.63,3.81-1.87,1.18-4.08,2.61-6.26,4.2-3.92,2.8-8,6-12.34,9.66l-6.19,5.23c-2.16,1.84-3.71,3.19-5.57,5a176.57,176.57,0,0,0-13.45,15.35c-2.35,2.9-4.79,5.89-7.39,8.93a152.73,152.73,0,0,1-12.3,12.56c-3.8,3.58-7.74,7.28-11,10.94-5.87,6.48-11.16,15.86-16.28,24.94l-.39.7c-4.09,7.17-7.78,14.53-11.35,21.65-1.22,2.44-2.45,4.88-3.69,7.32l-7.35,14.62c-2.54,5.08-5.11,10-7.69,14.9s-4.91,9.46-7.11,14.23l-13.29,30.86.51,1.18.31.69-.86,1.74c-1.53,3.09-3.07,6.2-4.64,9.28l-.33.64v.24c-.48,1.67-1,3.4-1.44,5.19-.92,3.38-1.88,6.88-3,10.56a85.31,85.31,0,0,1-3.22,8.55c-1.19,2.72-2.49,5.33-3.81,7.93-1.5,2.86-3,5.6-4.48,8.25-1.19,2.15-2.34,4.24-3.42,6.27a99.67,99.67,0,0,0-6.26,14c-1.34,3.57-2.55,7.22-3.88,11.28l-.31.94.31.94c.08.25.17.5.27.75l-.57,1.56q-1.68,4.62-3.34,9.24l-.87-.09-.83,2.13q-.93,2.39-1.86,4.6c-1.29,3.07-2.41,5.58-3.54,7.91s-2.62,5.14-4.18,7.78-2.47,4.32-3.55,6.57c-1,2-1.91,4.28-2.8,6.44l-.34.84a7.42,7.42,0,0,1-9.7,4.1,7.7,7.7,0,0,1-1-.52l-3-1.8-1.32,3.25q-7.29,18-14.52,36a17.54,17.54,0,0,0-.56,11.27l.64,2.23,14.53-.18c3.7-.08,7.42-.28,11.7-.61,4.06-.34,8.36-.69,12.46-.86l9.4-.21,3.32,0a82.22,82.22,0,0,1,13.45,1.22c1.57.27,3.09.58,4.48.86l1.75.35c1.9.37,3.65.68,5.36.9a89.54,89.54,0,0,0,11,.53,75.72,75.72,0,0,0,10.89-.78c1.84-.26,3.71-.67,5.88-1.15,1.75-.39,3.68-.82,5.86-1.21a86.19,86.19,0,0,1,13.49-1.27c4.56-.12,8.7,0,13,.24,3.58.21,7.27.72,10.53,1.16l2.14.29a96,96,0,0,0,11.19.84c4.29.07,8.16,0,11.47-.18a109.17,109.17,0,0,0,11.3-1.2,129.71,129.71,0,0,1,13-1.29c3.32-.17,6.66-.21,10.54-.15l.5,0c13.87-1,34.84-2.54,36.06-20.6a62.87,62.87,0,0,0-1.84-18.21l-.09-.3c-2-5.83-3.85-11.08-5.83-16.22l-.29-.73c-.87-2.21-2.06-5.25-2.93-7.87-1-3-1.93-5.9-2.79-8.79q-.8-2.61-1.56-5.17c-1.19-4-2.35-7.84-3.58-11.52-.88-2.75-1.74-5.25-2.78-8l-4.2-10.94c-1.77-4.54-3.57-9.14-5.31-13.8-1-2.87-2-5.73-3-8.67l-2.81-7.9c-1.09-2.74-2.28-5.55-3.5-8.43-1.07-2.53-2.17-5.12-3.25-7.77a116.59,116.59,0,0,1-6-18,174.54,174.54,0,0,1-2.84-20.18c-.53-5.31-1-10.32-2-15l-.1-.36a6.17,6.17,0,0,1,12-2.86,139.83,139.83,0,0,1,4.08,18.07,143.7,143.7,0,0,0,3.74,16.45c2,6.58,5.23,13.23,8.67,20.27,1.74,3.56,3.54,7.24,5.27,11.1q1,2.12,1.85,4.22l1.71,4.37c1,2.67,2.12,5.33,3.25,8l10.37,24.51c.92,2.21,1.86,4.64,2.72,7l.76,2.06,1.81-.08a149.14,149.14,0,0,0,9.09,25.89c-.3.67-.54,1.28-.75,1.89l-.35,1,.37,1c.24.66.52,1.34.81,2.07l.36.89c2.25,5.64,4.25,11.28,6.29,17,1.8,5.15,3.84,11,6,16a68.94,68.94,0,0,0,7.69,13.41,101.63,101.63,0,0,0,10.5,12.11c.94.94,2,2,2.87,2.72s1.84,1.62,2.83,2.38a61.15,61.15,0,0,0,6.24,4.25,106.08,106.08,0,0,0,14.5,6.9c3.57,1.39,7.61,2.83,11.64,4.28l26.13,9.4c4,1.46,8.05,2.93,12.11,4.5l18.31,7.17H935a21,21,0,0,0,8.71-1.82,15.73,15.73,0,0,0,6.06-5.08l.5-.68.07-.85c2-23.56,14.87-39.47,25.36-48.66l.87-.76.14-1.14c.93-7.85-4-10.25-8.39-12.35l-.74-.36a23.9,23.9,0,0,1-3.36-2l-.4-.24c-.7-.35-1.38-.7-2.22-1.14a161.86,161.86,0,0,1-15.2-9,154.14,154.14,0,0,0-13.34-8.37c-1.09-.63-2.3-1.26-3.6-2a75.62,75.62,0,0,1-12.11-7.49,38.09,38.09,0,0,1-7.83-8.31c-.57-.82-1.09-1.67-1.57-2.51l-3.06-5.52c-2.5-4.55-5.39-10-7.87-15.85-1.31-3.13-2.35-6-3.2-8.75a67.4,67.4,0,0,1-2.27-9.58,94.52,94.52,0,0,1-.64-16.61l0-1.77a101.11,101.11,0,0,0-.32-15.11c-.55-4.56-1.39-9.56-2.2-14.41l-.26-1.54c-1-5.56-1.88-11.14-2.65-16.58l-1.15-8q-.64-3.79-1.47-7.77l-3.57-16c-1.25-5.49-2.39-11.66-3.14-17l-.59-4c-.6-4.14-1.16-8-1.93-11.72a70.29,70.29,0,0,0-1.84-7.05c-.3-.95-.79-2.26-1.31-3.67l-1.39-3.72A140.66,140.66,0,0,0,855,1093.77a126.79,126.79,0,0,0-20.89-23.27l-.21-.17a6.17,6.17,0,0,1,7.79-9.54,127,127,0,0,1,25.38,24c6.45,8,12.12,17.63,17.82,30.12l2.16,5c.4.95.8,1.88,1.24,3.09a84.16,84.16,0,0,1,2.78,8.87c1.29,5,2.16,9.72,3,14.32l.46,2.5c.87,5.07,1.86,9.6,3.41,15.63l1,4c1,4,2.09,8,3,12.16.62,2.78,1.24,5.62,1.77,8.53l1.41,8.47c.59,3.57,1.26,7.17,1.94,10.85l1,5.7,1.78,3.18q2.26,4,4.55,8.11c.35.62.7,1.25,1,1.88a47.12,47.12,0,0,0,3.09,5.11c4.16,5.75,6.18,8,14.57,7,15.41-2,28.18-19.41,35-28.76A5.17,5.17,0,0,1,970,1209l.63-.32.42-.57a129.84,129.84,0,0,0,20.84-42.38c4-14.37,5.78-30.83,5.51-50.49a6.2,6.2,0,0,1,6.07-6.27,6.35,6.35,0,0,1,6.22,5.58c.49,4.83.83,9.89,1,15l.14.81a6.13,6.13,0,0,1,.34,1.66c1,27.22,3.38,55.75,20.37,79.3.39.45.77.87,1.1,1.23,3.68,4.19,7.08,8,10.39,11.54,3.59,3.91,7.15,7.54,10.57,10.79a131.82,131.82,0,0,0,11.15,9.59c4.06,3.17,8.32,6.13,12.31,8.84l3.43,2.32c3.17,2.14,6.45,4.36,9.86,6.85,2.92,2.17,5.55,4.32,8.09,6.41,1.54,1.27,3,2.48,4.45,3.6,4.54,3.56,7.95,5.71,11,7a16.65,16.65,0,0,0,2.79,1l3.58,1.1c2.2.62,4.55,1.26,6.8,1.67,2,.42,4.06.74,7,1.09l1,.12c2.25.27,4.8.57,7.36,1a121.9,121.9,0,0,1,16.53,4.42l24.57,8,.78.14a27.82,27.82,0,0,0,8.2-.6l.46-.16a32.48,32.48,0,0,0,3.78-2h1.66l.45-2.45a47.1,47.1,0,0,1,9.1-20l.29-.46C1211,1267.6,1214.14,1262.09,1211.65,1256.9Z"/><path class="cls-3" d="M2541.86,1969.76a59.47,59.47,0,0,0-3.1-9.94h0c-.55-1.39-1.15-2.82-1.76-4.31-1.07-2.57-2.21-5.31-3.32-8.32a70.69,70.69,0,0,1-2.38-7.51c-.59-2.44-1.1-4.71-1.58-7-.59-2.89-1.1-5.7-1.6-8.41a146.91,146.91,0,0,0-3.68-16.59c-2.14-7.16-4.77-14.63-8.54-24.23-1.12-2.74-2.23-5.6-3.33-8.43-2.18-5.63-4.24-10.94-6.35-15.27a30.58,30.58,0,0,0-2.38-4.19l-1.05-1.32c-.59-.62-1.21-1.21-1.86-1.83a86.84,86.84,0,0,0-9.13-7.3c-1.66-1.18-3.42-2.38-5.23-3.59l-5.33-3.52a79.87,79.87,0,0,0-10.33-5.32l-3.76-1.68c-2.75-1.22-5.65-2.51-8.63-3.94-2.27-1.09-4.67-2.35-6.59-3.45-1.42-.82-2.79-1.64-4.11-2.43l-2.68-1.61c-3.5-2.14-6.8-4.15-9.88-5.68a76.54,76.54,0,0,0-7.93-3.27c-1.17-.44-2.36-.88-3.51-1.33l-3.81-1.47-.48-.1a13.73,13.73,0,0,0-5.08.62c-3.21,1.12-6,3.75-8.46,8.21-1.26,3.16-2.7,6.38-4.27,9.55-4.71,9.51-11.4,17.55-17.87,25.33l-1.92,2.31a172.35,172.35,0,0,1-23.92,23.47l-1.85,1.53c-7.79,6.37-15.85,12.95-25.13,18.15l-3.76,2.1c-8.3,4.68-16.89,9.53-26.31,12.85-7.7,2.73-15.44,3.44-22.92,4.12l-.69.06c-3.38.31-6.58.6-9.61,1.09-2.34.38-4.67.85-7.09,1.34l-2,.41c-7,1.44-14.21,2.94-21.74,2.94-.86,0-1.73,0-2.63-.06-9.38-.44-18-3.56-25.62-6.3-2.48-.91-5-1.78-7.4-2.56-1.79-.59-3.57-1.11-5.53-1.69-8.94-2.68-18.17-5.46-26.5-11.46-.39-.28-.77-.55-1.13-.85l-.81-.69-.92.54-.33.21-.57-.21c-.17-.8-.37-1.59-.6-2.37a22.36,22.36,0,0,0-10.18-12.5c-.7-.39-1.33-.71-1.92-1v-2.19l-1.6-2.4c-1.21-1.83-2.43-3.67-3.67-5.45-.16-.24-.33-.47-.5-.71l-.43-.62-.23-.26c-4.88-4.53-10.77-9.1-18.85-6.1a72.28,72.28,0,0,0-7.87,3.65c-1.48.76-3,1.52-4.47,2.22l-.31.19c-2.84,2.27-5.8,4.61-8.87,6.93-5.93,4.42-11.55,9.84-17.51,15.59l-6.57,6.21c-6.86,6.31-12.78,11.76-14.06,15.66a111.83,111.83,0,0,0-4,12.72l-4.09,14.73-7.41,28.7c-1.1,4.15-2.31,8-3.48,11.8l-.94,3c-.72,2.35-1.42,4.68-2.05,7l-.08.28,0,.29a11.91,11.91,0,0,0,1.46,4.79c1.38,2.35,3.76,3.78,7.29,4.35l.28,0,.27-.06a84.71,84.71,0,0,1,37,.92,87.78,87.78,0,0,1,12.27,4l.37.15.39-.05a5.54,5.54,0,0,1,2.92.45l.4.16c5.74,2.36,12.24,5,18.42.74a23.82,23.82,0,0,0,6.8-7.69l.16-.39c1.53-5.72,3.3-11.48,5.25-17.12a7.63,7.63,0,0,1,14.58,4.51l-.1.33c-4.83,17.36-7.18,33.94-7,49.26s3.34,31.61,9.42,48c5.6,15.26,13.37,29.73,21.6,45.06l1.88,3.51c10.06,14.78,23.08,31,43.36,38.8l33.45.1a11.59,11.59,0,0,1,11.16,8.47l19.08,68.85.13.33a20.72,20.72,0,0,0,12.3,9.95,21.21,21.21,0,0,0,6.25.92,34,34,0,0,0,11.14-2.16c.83-.39,1.66-.77,2.4-1.1l.58-.25c1.89-.82,3.38-1.47,4.87-2.25a88,88,0,0,0,10-6.11c1.75-1.22,3.18-2.31,4.48-3.4s2.35-2.06,3.76-3.38l.76-.71a74.71,74.71,0,0,1,5.75-5c2-1.6,4.09-3.08,6.1-4.42s4.19-2.73,6.49-4a62,62,0,0,1,7.49-3.45c1.71-.63,3.28-1.14,4.61-1.57.75-.24,1.43-.46,2-.66a35.33,35.33,0,0,0,4.7-2,48.1,48.1,0,0,0,4.4-2.54l.36-.23c1.73-1.13,3.5-2.28,5.09-3.46s3.17-2.28,4.75-3.57l5.26-4.28c3.87-3.07,8.1-5.86,11.73-8.19,4.31-2.78,7.46-4.93,10.51-7.18,2.55-1.85,5.92-4.27,9.54-6.7,16.3-15.55,24.06-30.26,24.39-46.57a279,279,0,0,0-6-27.94,151.48,151.48,0,0,0-6-17.15c-1.4-3.53-2.87-7.24-4.28-11.17-1.72-4.92-3.82-9.89-6-15.14-1.83-4.33-3.73-8.8-5.52-13.51a84.47,84.47,0,0,1-4.12-17.17l-.32-2a101.33,101.33,0,0,0-2.33-12c-.67-2.28-1.41-4.62-2.18-7-2.42-7.65-4.93-15.57-6.21-24.36a155.58,155.58,0,0,1-1.67-32.86c.69-9.88,3-18.66,5.22-27.15.43-1.65.86-3.28,1.27-4.9a7.7,7.7,0,0,1,9.31-5.52,7.61,7.61,0,0,1,5.59,8.9l-.69,3.45c-1.9,9.18-3.69,17.85-3.72,25.87a148.92,148.92,0,0,0,2.94,29.19,125.78,125.78,0,0,0,5.65,18.83l.23.42a15.39,15.39,0,0,0,3.24,3.17c4.64,3.34,8.68,1.35,11.53-.6a93.93,93.93,0,0,1,73.55-25.26l.23,0,.22,0a21.69,21.69,0,0,0,8.14-3.2c3.54-2.38,5.94-6.1,7.53-11.7l.1-.35Zm-343.68,65.87h0Z"/><path class="cls-3" d="M2454.38,2353.14l.16-.51c1.53-5.94,3.08-12.84,4.74-21.14l.56-3.13-.12-.77a28.61,28.61,0,0,1-.39-4,36.45,36.45,0,0,1,.39-5.07,30.67,30.67,0,0,0,.13-9.73,12.76,12.76,0,0,0-6.3-9.18c-7.35-4.15-18.54-.93-28.76,2.88l-3,1.8c-2,1.21-4,2.31-6.08,3.44l-6,3.13c-3.85,2-7.15,3.92-11,6.35-3.68,2.3-8,4.73-12.13,6.84-4.75,2.47-8.53,4.34-12.23,6.07l-1.35.63c-3.73,1.74-7.08,3.31-10.55,5.07l-5.7,2.89c-1.87,1-3.63,2-5.21,3s-3.12,2-5,3.42-3.81,2.78-5.88,4.13a132.4,132.4,0,0,1-12.18,6.71l-.3.15c-3.66,1.86-7.53,3.87-11,6a50.65,50.65,0,0,0-9,6.86l-2.57,2.51c-.88.85-1.78,1.64-2.7,2.44-1.57,1.38-3.27,2.76-5.2,4.23l-.42.32-.64.84c-1.83,2.85-2.46,5.53-1.89,7.93,1.1,4.77,5.62,5.61,7.54,6l4.52.9,7.21-.1c2.09,0,4-.06,6-.16s3.8-.28,5.87-.53l1.4-.17c1.62-.2,3.4-.41,5.19-.59,5.28-.45,10.1-.47,13.69-.43,2.06,0,4.5.13,7,.34,2.21.19,4.68.5,6.92.86a79.86,79.86,0,0,0,11.82,1.29c1.73.06,3.7.08,6,.08,1.88,0,4,0,6.4-.06l12.74-.45c4.4-.12,8.92-.12,13.07-.12l12.67-.06q6.38-.09,13.2,0h.63c4.19,0,7.8,0,11.67-.1l7.4-.35,4.57-32.34-2.86-1.46A6,6,0,0,1,2454.38,2353.14Z"/><path class="cls-4" d="M2253.8,2249.42c-4.83,7.14-14.64,5.85-22.11,5.31a7.07,7.07,0,0,0-2.7.27c-5,0-9.78.24-14.1.42l-3.72.21c-1.29.12-2.58.24-3.87.39-2.58.3-5.13.72-7.65,1.23-1.17.24-2.31.57-3.48.84-3.06.24-6.27,1-9.78,1.59-10.5,1.89-19-2.94-23.7-10.92l-8.52-31.62c0-2-.09-4.08-.24-6.21-.27-3.6-1.26-8.49,2.22-10.8,2.79-1.83,7.71-1.41,11.22-1.62h63.39c6,1.32,11.58,3.57,16,8.22a40.79,40.79,0,0,1,2.73,3.3l7.08,25.59C2256.95,2240.51,2256.5,2245.43,2253.8,2249.42Z"/><g id="_Group_" data-name="&lt;Group&gt;"><path class="cls-4" d="M894.24,1820a10.48,10.48,0,0,1,0,20.94c-6.84.24-13.11.69-20.25,1.17s-14.1.6-21.09.72-13.8,0-20.55.15c-6.9.09-13.14.21-19.8.78-7,.6-14.73.72-21.24.78-3.33.06-6.57.15-9.87.33s-7,.36-10.56.45-7,.12-10.74.12-7.59-.18-11.46-.6-7.05-.87-10-1.08-6-.3-9.24-.3-6.45,0-9.54.21-6.21.51-10.05.81a5.78,5.78,0,0,0-.72,0,63.72,63.72,0,0,0-16.59,7.86,49.64,49.64,0,0,1-5.25,6.18,37.9,37.9,0,0,1-27,11.31c-10.62,0-19.74-4.65-26.7-11.58a48.09,48.09,0,0,1-6.12-7.59q-1-1-2.07-2.16a20,20,0,0,0-8.58-5.37c-3,.36-6.6.81-10.14.93-15.27.36-28.5-1-42-1.47h0a10.46,10.46,0,0,1,0-20.91l10.53-.3,10.35,0c6.63-.09,13.71-.12,19.56-.69,3-.27,5.73-.72,9.45-1.32,1-.15,2-.24,3-.36l8.7-4.38a47.27,47.27,0,0,1,7.44-9.6c7-7,16-11.67,26.58-11.67S680,1798,686.94,1805a56.16,56.16,0,0,1,6.06,7.2,101.67,101.67,0,0,0,14.46,6.36,2.27,2.27,0,0,1,.45,0c3-.24,6.66-.66,10.47-.9s7.5-.3,11.1-.33,7.44.12,11.34.45,7.65.9,10.53,1.2,5.94.45,9.12.51,6.63,0,9.87,0,6.51-.12,10.05-.24,7.17-.18,10.71-.18c7.26,0,13.23.09,20-.24,7.05-.36,14.55-.36,21.39-.18,7,.15,14.07.54,20.67.75,6.78.24,13.56.48,20.13.45l10.38-.06C887.22,1819.72,890.76,1819.84,894.24,1820Z"/></g><g id="_Group_2" data-name="&lt;Group&gt;"><path class="cls-4" d="M894.3,1932.73a10.48,10.48,0,0,1-.06,20.94c-3.54.12-7.14.21-10.83.15s-7.29-.33-10.44-.42-6.39-.06-9.69,0-6.72.21-10,.36l-10.08.51c-3.51.21-7.14.36-10.65.45-7,.18-14.13.21-21.15.06-3.42-.09-6.66-.12-10-.12-1.8,0-3.6,0-5.37,0a21.25,21.25,0,0,1-4.62,1.2c-4.86.66-10.56-1-14.91,1.47a11.17,11.17,0,0,0-1.83,1.29,42.81,42.81,0,0,1-7.53,10c-6.93,7-15.72,13.2-26.34,13.2s-20.31-5.34-27.24-12.27a45,45,0,0,1-5.16-6.21,57.73,57.73,0,0,0-14.49-6.84c-2,0-4-.06-6.09-.15-3.66-.15-7.44-.45-10.68-.69s-6.36-.39-9.63-.48-6.63-.09-9.84-.06-6.3.12-9.72.33c-7.05.45-14.79.45-21.48.27l-20.61-.42-10.47-.3a109.71,109.71,0,0,1-11.46-1c-3.93-.6-7-1.26-9.9-1.62s-6-.63-9.27-.78h-.12a10.46,10.46,0,0,1,.12-20.91,110.51,110.51,0,0,1,11.34.09c3.93.24,7.65.84,10.53,1.08a82.29,82.29,0,0,0,9.09.27l10.14-.27,20.61-.45c7.05-.12,13.11-.21,19.74-.87,3.45-.3,7.26-.54,10.86-.66s7.17-.15,10.8-.15,7.35.12,11,.33,6.69.42,9.87.48c1.59,0,3.21.06,4.83.06a22.87,22.87,0,0,0,10.44-4.32c.69-.54,1.32-1.11,2-1.71a39.4,39.4,0,0,1,7.17-10,40,40,0,0,1,27.72-11.7c10.62,0,19.29,6.24,26.25,13.2a48.69,48.69,0,0,1,3.3,3.72,46.3,46.3,0,0,0,19.5,9.42H791c3.63,0,7.11,0,10.65.09s7.14.24,10.59.42c6.72.39,13.29.51,20.07.6,3.36,0,6.63.06,10,0s7-.12,10.5-.12,7,.12,10.59.24,7.26.33,10.92.66l10.14,1c3.15.3,6.42.48,9.75.6Z"/></g><g id="_Group_3" data-name="&lt;Group&gt;"><path class="cls-5" d="M1494.43,1995.1a32.63,32.63,0,0,1-9.27,23c-5.79,5.79-14.13,10.14-23,10.14-7.53,0-14.4-3.48-19.83-8.07-5.73,3.21-8.73,4.92-11.73,6.6s-6.27,3.57-12.57,7.11l-12.63,7c-3.12,1.71-6.24,3.45-12.48,6.93s-9.54,5.28-12.72,7-6.24,3.39-12.45,6.87l-5.52,3.09c0,.48.06,1,.06,1.47a32,32,0,0,1-9.54,22.59c-5.79,5.79-13.77,8.31-22.59,8.31s-17.43-1.89-23.22-7.68-8.7-14.4-8.7-23.22a38.06,38.06,0,0,1,3.21-15.57c-1.17-1.65-2.52-3.54-4.2-5.88-4.35-6.15-6.63-9-9.06-12-2.58-3.21-5.22-6.51-10.05-13.29s-7-10.14-9.18-13.47-4.23-6.45-8.7-12.75l-9.12-12.84c-2.34-3.24-4.65-6.48-9.27-13-4.86-6.87-7.08-10.53-9.21-14.1-2-3.3-3.84-6.39-8.13-12.45-4.44-6.27-6.72-9.21-9.12-12.33s-5-6.51-9.78-13.2c-.45-.63-.84-1.2-1.23-1.74a31.1,31.1,0,0,1-6.27.66c-8.82,0-16.77-4.14-22.56-9.93s-8.88-13.74-8.88-22.59,2.49-17.37,8.28-23.16,14.34-8.55,23.16-8.55,17.61,2.52,23.4,8.31,8.67,14.58,8.67,23.4a32.54,32.54,0,0,1-4.53,16.62c.42.6.84,1.2,1.29,1.86,4.44,6.27,6.72,9.21,9.12,12.33s5,6.48,9.78,13.2c4.86,6.87,7.08,10.53,9.21,14.1,2,3.27,3.84,6.39,8.16,12.45,4.59,6.51,6.9,9.72,9.21,13s4.59,6.45,9.15,12.9c4.74,6.66,7,10.14,9.21,13.5s4.23,6.42,8.7,12.72c4.35,6.15,6.63,9,9.06,12,2.58,3.18,5.22,6.48,10.05,13.29,1.62,2.28,2.94,4.14,4.08,5.73a47.64,47.64,0,0,1,7.47-.6c7.74,0,15.3,1.86,20.94,6.24,1.14-.66,2.43-1.38,3.9-2.19,6.36-3.57,9.54-5.28,12.75-7s6.24-3.39,12.42-6.84,9.42-5.25,12.57-7,6.27-3.48,12.51-7,9.33-5.25,12.45-7,6.27-3.57,12.57-7.08c.39-.24.75-.42,1.11-.63,0-.39,0-.78,0-1.2,0-8.82,2.61-16.62,8.4-22.41s13.59-10.26,22.41-10.26,16,5.13,21.75,10.92S1494.43,1986.28,1494.43,1995.1Z"/></g><g id="_Group_4" data-name="&lt;Group&gt;"><path class="cls-6" d="M696.09,2231.18c5.73,0,10.89,3.27,10.47,9-.75,10.23-1.68,20.58-4.5,30.09-2.88,9.75-9.27,18.09-14.1,26.85s-9,18.3-15.6,25.86-13.47,15.63-21.54,21.66-17.34,10.89-26.58,15.12c-9.06,4.11-19.59,4.62-29.55,6.78-9.66,2.1-19.47,5.52-29.76,5.52-11,0-21.45-4.05-31.77-6.45-10.68-2.49-21.87-3.36-31.47-8.1-9.75-4.83-18.21-12-26.52-18.9a140.86,140.86,0,0,1-22.35-23.37c-6.54-8.55-14.55-16.71-19.05-26.64-4.38-9.75-6.15-21-8.25-31.74-2-10.38-1.38-21.3-1-32.37.36-10.23,2.64-19.8,5.1-29.4,2.52-9.81,3.24-20.28,7.71-29.19s12.36-16,18.63-23.79,11.49-16.89,19.26-23.22,17-11,26-15.6,18.93-5.91,28.74-8.49c9.57-2.49,18.93-6.9,29.16-7.29s20.28,1.23,29.94,2.91c10,1.71,20.37,2.67,29.55,6.39,5.31,2.16,4.83,8.85,2.28,14-7.47,15.12-7.44,15.12-14.91,30.24s-4.8,16.44-12.3,31.56c-2.76,5.61-9.33,7.44-15.39,5.85-4.2-1.08-8.76-3.36-13.29-3.36-9.78,0-17.85,7-25.68,11.7-8,4.86-17.13,9.3-21.57,17.64a55.25,55.25,0,0,0-6.33,28c.69,13.11,6.6,26.52,15.42,35.31s22.44,10.53,35.52,11.19,25.11-.72,34.56-8c9.63-7.44,15.42-18.69,18-31.05,1.26-6.12,7.56-11.64,13.8-11.64,16.86,0,16.86,3,33.75,3S679.23,2231.18,696.09,2231.18Z"/></g><g id="_Group_5" data-name="&lt;Group&gt;"><path class="cls-6" d="M739.86,2206.79c.33,5.31-5.76,9.72-11.1,9.72-19.26,0-19.26,1.86-38.55,1.86s-19.26-3.06-38.55-3.06c-5.28,0-7.56-2.88-8.43-8.07-2.43-14.94-13-27.39-24.75-35.88-4.32-3.09-3.78-7.92-1.44-12.66,8.55-17.28,6.3-18.39,14.85-35.67s11.07-16,19.62-33.3c2.37-4.8,5.49-6.9,10.11-4.23,8.7,5,18.63,8.52,26.13,15.09s15.15,13.8,21.24,21.72,9.54,17.88,14,26.91a152.9,152.9,0,0,1,10.65,28C736.14,2186.78,739.2,2196.62,739.86,2206.79Z"/></g><path class="cls-4" d="M1723.9,1631.38a8.12,8.12,0,0,1-.15,8.55,96.46,96.46,0,0,1-8.64,11.19c-.84,1-1.71,1.89-2.58,2.82.75.84,1.53,1.65,2.28,2.49a89.17,89.17,0,0,1,8.61,11.25,8.08,8.08,0,0,1-11,11.25,85.87,85.87,0,0,1-11.49-8.25c-1-.84-2-1.71-3-2.58-1,.87-2,1.74-3,2.55a93.16,93.16,0,0,1-11.49,8.28,8,8,0,0,1-10.92-11.25,94.1,94.1,0,0,1,8.61-11.22c.75-.87,1.53-1.68,2.28-2.52-.84-.93-1.74-1.86-2.58-2.82a110,110,0,0,1-8.67-11.19,8,8,0,0,1,10.92-11.28,106.64,106.64,0,0,1,11.46,8.34c1.14.93,2.25,1.92,3.36,2.88,1.11-1,2.22-2,3.39-2.91a97.22,97.22,0,0,1,11.46-8.31A8.09,8.09,0,0,1,1723.9,1631.38Z"/><path class="cls-4" d="M1636.06,1634.29v39a10.45,10.45,0,0,1-10.47,10.44h-39a10.45,10.45,0,0,1-10.47-10.44v-39a10.48,10.48,0,0,1,10.47-10.47h39A10.48,10.48,0,0,1,1636.06,1634.29Zm-20.94,22.89v-6.75a5.67,5.67,0,0,0-5.67-5.67h-6.72a5.69,5.69,0,0,0-5.7,5.67v6.75a5.69,5.69,0,0,0,5.7,5.67h6.72A5.67,5.67,0,0,0,1615.12,1657.18Z"/><path class="cls-4" d="M1535.29,1665.46a8.35,8.35,0,0,1,0,15.69,42.87,42.87,0,0,1-8.85,2,67,67,0,0,1-8.82.57,62.32,62.32,0,0,1-8.85-.54,39.4,39.4,0,0,1-8.85-2.07,8.4,8.4,0,0,1-4.89-10.8,8.53,8.53,0,0,1,4.89-4.89,39.4,39.4,0,0,1,8.85-2.07,62.32,62.32,0,0,1,8.85-.54,72.55,72.55,0,0,1,8.82.57A44.9,44.9,0,0,1,1535.29,1665.46Z"/><g id="_Group_6" data-name="&lt;Group&gt;"><path class="cls-7" d="M1064.61,2077.75a8.38,8.38,0,0,1-10.29,13.2c-7.11-5-14.22-8.94-20.88-9.9a24.79,24.79,0,0,0-9.75.54,38.68,38.68,0,0,0-9.63,4.38c-1.56,1.17-3.18,2.07-4.68,3.42l-2.31,1.89-1.47,1.2-1.92,1.53a41,41,0,0,1-17,6.84,48.79,48.79,0,0,1-17.58-.33,41.9,41.9,0,0,1-16.89-7.53c-6.75-5.22-13.38-9.3-19.65-10.53a23.41,23.41,0,0,0-9.36,0,40.18,40.18,0,0,0-9.69,3.84c-1.62,1.08-3.27,1.92-4.86,3.18l-5.82,4.41a39.91,39.91,0,0,1-17,6.21,46.8,46.8,0,0,1-17.1-.93,39.36,39.36,0,0,1-15.75-7.86,8.36,8.36,0,0,1,9.9-13.44l.39.27c5.19,3.33,12.9,4.44,19.56,3.09a23.45,23.45,0,0,0,8.55-3.69l5-4.14c2-1.68,4.35-3.12,6.51-4.68a56.51,56.51,0,0,1,15.63-6.75,45,45,0,0,1,18-.45,53.27,53.27,0,0,1,16.05,5.88A92.23,92.23,0,0,1,965.4,2076a21.31,21.31,0,0,0,8.07,3.66,28.56,28.56,0,0,0,9.84.36,22.28,22.28,0,0,0,8.49-3.06l.81-.57c.15-.12.21-.15.48-.33l.75-.6,3.12-2.4c2-1.62,4.44-3,6.63-4.44a58.55,58.55,0,0,1,15.72-6.24,43.66,43.66,0,0,1,17.64.12,50.43,50.43,0,0,1,15.42,6.24A87.63,87.63,0,0,1,1064.61,2077.75Z"/><path class="cls-7" d="M1064.61,2145.08a8.38,8.38,0,0,1-10.29,13.2c-7.11-5-14.22-8.94-20.88-9.9a24.79,24.79,0,0,0-9.75.54,39.66,39.66,0,0,0-9.63,4.35c-1.56,1.2-3.18,2.1-4.68,3.45l-2.31,1.89-1.47,1.2-1.92,1.5a41.08,41.08,0,0,1-17,6.87,49.48,49.48,0,0,1-17.58-.33,41.9,41.9,0,0,1-16.89-7.53c-6.75-5.22-13.38-9.3-19.65-10.53a23.41,23.41,0,0,0-9.36,0,39,39,0,0,0-9.69,3.84c-1.62,1.08-3.27,1.92-4.86,3.18l-5.82,4.41a39.91,39.91,0,0,1-17,6.21,46.8,46.8,0,0,1-17.1-.93,39.36,39.36,0,0,1-15.75-7.86,8.36,8.36,0,0,1,9.9-13.44l.39.27c5.19,3.33,12.9,4.44,19.56,3.09a23.45,23.45,0,0,0,8.55-3.69l5-4.14c2-1.68,4.35-3.12,6.51-4.68a56.51,56.51,0,0,1,15.63-6.75,45,45,0,0,1,18-.45,53.27,53.27,0,0,1,16.05,5.88,89.67,89.67,0,0,1,12.84,8.67,21.31,21.31,0,0,0,8.07,3.66,29.31,29.31,0,0,0,9.84.36,22.28,22.28,0,0,0,8.49-3.06l.81-.57c.15-.12.21-.15.48-.33l.75-.6,3.12-2.4c2-1.62,4.44-3,6.63-4.44a58.55,58.55,0,0,1,15.72-6.24,43.66,43.66,0,0,1,17.64.12,50.43,50.43,0,0,1,15.42,6.24A87.63,87.63,0,0,1,1064.61,2145.08Z"/><path class="cls-7" d="M1064.61,2212.4a8.38,8.38,0,0,1-10.29,13.2c-7.11-5-14.22-8.94-20.88-9.9a24.79,24.79,0,0,0-9.75.54,39.66,39.66,0,0,0-9.63,4.35c-1.56,1.2-3.18,2.1-4.68,3.42l-2.31,1.92-1.47,1.2-1.92,1.5a41.08,41.08,0,0,1-17,6.87,50.18,50.18,0,0,1-17.58-.33,41.9,41.9,0,0,1-16.89-7.53c-6.75-5.22-13.38-9.3-19.65-10.53a22.88,22.88,0,0,0-9.36,0,39,39,0,0,0-9.69,3.84c-1.62,1.08-3.27,1.92-4.86,3.18l-5.82,4.41a39.91,39.91,0,0,1-17,6.21,46.8,46.8,0,0,1-17.1-.93,39.36,39.36,0,0,1-15.75-7.86,8.36,8.36,0,0,1,9.9-13.44l.39.27c5.19,3.33,12.9,4.41,19.56,3.09a23.45,23.45,0,0,0,8.55-3.69l5-4.14c2-1.71,4.35-3.12,6.51-4.68a56.51,56.51,0,0,1,15.63-6.75,44.51,44.51,0,0,1,18-.45,53.27,53.27,0,0,1,16.05,5.88,87.26,87.26,0,0,1,12.84,8.67,21.31,21.31,0,0,0,8.07,3.66,29.31,29.31,0,0,0,9.84.36,22.28,22.28,0,0,0,8.49-3.06l.81-.57c.15-.12.21-.15.48-.33l.75-.6,3.12-2.4c2-1.62,4.44-3,6.63-4.44a57.58,57.58,0,0,1,15.72-6.24,43.13,43.13,0,0,1,17.64.12,49.69,49.69,0,0,1,15.42,6.24A87.63,87.63,0,0,1,1064.61,2212.4Z"/></g><g id="_Group_7" data-name="&lt;Group&gt;"><path class="cls-7" d="M1567.18,2249a10.46,10.46,0,0,1,0,20.91l-30.42.72-15.36.24c-5.19.06-10.44,0-15.33-.06-9.87,0-20,.06-29.85.42-5,.21-10.29.39-15.45.48s-10.32.18-15.75,0c-2.7-.06-5.43-.18-8.07-.36l-7.35-.42c-4.71-.21-9.45-.24-14.52-.21l-30.42.21c-5.13,0-10.05,0-15,.15l-15.18.48c-10.53.24-20.52.15-30.69.27-10.17-.06-20.13.06-30.87-.27-5.43-.21-10.38-.6-15.15-.75s-9.84-.21-14.58-.15-9.09.36-14.25.84-11,.75-16.26.75-10.5-.06-15.9-.33-10.23-.78-15-1-9.72-.24-14.85-.3l-15.18-.15c-10.17-.09-20.34-.27-30.3-.27l-15.3-.09-15.39-.3c-5.16-.15-10.47-.42-15.39-.66s-9.9-.45-14.91-.6h0a10.46,10.46,0,0,1,0-20.91c5.1-.12,10.29-.21,15.51-.21s10,.12,15,.06l6-.12a24.8,24.8,0,0,0,10.29-8.73,33.16,33.16,0,0,0,2.91-5.61c0-3.75-.09-8.07-.09-15.36,0-9.24.3-14,.6-18.48.27-4.32.54-8.4.54-16.83,0-8.85,0-13.29.06-17.7s0-8.79,0-17.58c0-8.34-.3-12.39-.63-16.68-.33-4.56-.69-9.3-.69-18.6,0-8.46-.21-12.57-.45-16.92-.27-4.53-.54-9.18-.54-18.36s.21-13.77.42-18.27.42-8.49.42-17c0-9.06.15-13.68.3-18.12s.33-8.58.33-17.19a26.54,26.54,0,0,1,26.4-26.58c11.73,0,17.4-.21,23.43-.45s12.21-.45,24.42-.45c14.7,0,27.12,12.6,27.12,27.48,0,9.09-.18,13.68-.33,18.15s-.33,8.58-.33,17.16c0,8.88,0,13.32,0,17.76s-.06,8.76-.06,17.55c0,9-.12,13.56-.24,18s-.21,8.67-.21,17.34c0,8.4.27,12.48.54,16.8.3,4.53.6,9.24.6,18.48s-.3,13.92-.57,18.45c-.27,4.32-.54,8.43-.54,16.83a138.35,138.35,0,0,0,.84,16.32,158.57,158.57,0,0,1,1,19v2.82c.12,1.68.24,3.36.39,5.13,1.14,13.38,6.57,20,21,18.87,8.76-.66,13.89-2.43,17.28-11.4,1.59-4.26,2.46-9.12,3.63-13.47l.09-.27c0-1.05,0-2.13,0-3.33,0-9.66.36-14.58.69-19.35.3-4.53.6-8.79.6-17.55v-36.9c0-15.15,11.13-27,25.38-27,12.33,0,18.57.36,24.66.69,5.94.33,11.58.66,23.19.66,15,0,26.79,11.25,26.79,25.65,0,9,.12,13.38.27,18s.33,9.45.33,18.87a163.13,163.13,0,0,1-1.05,19.83,143.44,143.44,0,0,0-.87,17.1c0,2.58,0,4.71.06,6.63,1.92,11.49,6.12,21.27,19.53,22.53h5.46c10.89-1.14,16.14-9.39,19.5-19.38,0-3.6.06-8,.06-14.19,0-10.44.06-15.66.12-20.85s.15-10.26.15-20.49c0-10.56.18-15.9.33-21.09s.33-10.11.33-20.25c0-10.35,0-15.54,0-20.7s0-10.32,0-20.64c0-14.67,10.8-25.35,25.68-25.35,11.7,0,17.37-.24,23.4-.48s12.24-.51,24.48-.51c14.91,0,27,11.82,27,26.34,0,10.74-.33,16.23-.69,21.51-.3,5.1-.6,9.9-.6,19.83a188.28,188.28,0,0,0,.84,19.53,212.27,212.27,0,0,1,1,21.81c0,10.62-.24,16-.45,21.24s-.45,10.05-.45,20.1.24,14.85.51,20c.06,1,.09,2,.15,3.09a24.34,24.34,0,0,0,11.25,13.41l4.17.09q15.21.23,30.45.66Z"/></g><g id="_Group_8" data-name="&lt;Group&gt;"><path class="cls-4" d="M1696.51,1791a10.82,10.82,0,0,1,.12,21.57l-.12,0c-3.6.3-7.08.6-10.47,1s-6.81,1.05-10.92,1.59-8.1.75-12,.93-7.68.24-11.64.24-8-.12-11.55-.27-7.05-.15-10.65-.12c-7.05,0-15.33.06-22.83-.33-3.72-.18-7.2-.33-10.8-.39s-7.32-.09-10.59-.09a88.17,88.17,0,0,0-9.75.63c-3.3.45-7.77,1-12,1.2-8.61.36-15.87-.21-23.61-.63l-11.1-.9-11-.81a10.82,10.82,0,0,1-.12-21.57l.12,0c7.47-.63,15.45-.69,22.68-.9s14.91-.27,21.18-.9c3.24-.3,6.15-.87,10.2-1.5a111.47,111.47,0,0,1,12.57-1.26c4.2-.18,7.92-.12,11.79-.12s7.86.15,11.61.33c7.38.39,14,.45,21.93.54,3.87.09,7.86.27,11.73.54l10.83.75c3.51.21,7.23.33,10.74.42s7,.15,10.35,0,7.29-.33,11.4-.36S1692.61,1790.74,1696.51,1791Z"/></g><g id="_Group_9" data-name="&lt;Group&gt;"><path class="cls-4" d="M1696.51,1851.19a10.8,10.8,0,0,1,.12,21.57l-.12,0c-5.7.27-11,.66-16.59,1.23-5.85.63-12.18,1-18.06,1.2-5.7.15-11,.42-16.74.84-5.85.45-12,.66-17.91.78-3.09,0-6.24,0-9.51-.15s-6.66-.54-9.57-.93-5.16-.6-7.68-.75-5.1-.15-7.8-.12-5.4.06-8,.21-5.07.36-7.92.66-6.18.63-9.33.78-6.27.24-9.33.24c-5.88,0-12.18-.18-18.09-.57-5.64-.39-10.86-.48-16.56-.57-5.85-.06-12.06-.24-17.94-.6-5.67-.33-11-.57-16.71-.69-2.64-.06-5.25-.06-7.71.06s-4.8.36-7.65.75-6.33.78-9.6,1-6.45.21-9.54.12c-5.85-.18-11.88-.48-17.7-.87l-17-1h-.06a10.82,10.82,0,0,1,.06-21.6c5.82-.3,11.88-.45,17.7-.42s11.25-.12,17-.33c2.7-.12,5.31-.21,7.77-.45s4.8-.63,7.62-1.11,6.3-1.05,9.57-1.32,6.45-.45,9.57-.51c5.88-.15,12.09-.15,17.94.12,5.7.21,11,.27,16.71.21,5.88-.09,12.21.09,18.09.42,5.64.33,10.89.42,16.56.39,2.73,0,5.43,0,8-.15s5.07-.33,8-.6,6.18-.57,9.33-.72,6.27-.18,9.33-.15,6.27.15,9.54.39,6.66.69,9.51,1.11,5.16.75,7.68.93,5.13.33,7.8.39c5.7.12,11,.12,16.74,0,5.85-.18,12.06-.15,17.91,0,5.67.21,10.92.27,16.59.09,2.88-.09,6-.18,9-.15S1693.54,1851,1696.51,1851.19Z"/></g><g id="_Group_10" data-name="&lt;Group&gt;"><path class="cls-4" d="M1696.57,1911.19a10.91,10.91,0,0,1-.06,21.6c-4.29.6-8.67.9-13.11,1.11l-12.45.3c-4,.15-8.28.15-11.91.42a82.92,82.92,0,0,0-10.89,1.23,99.1,99.1,0,0,1-14.22,1.23c-4.83,0-8.88-.12-13.29-.42-8.91-.57-16.68-1.53-25.05-2.58a10.88,10.88,0,0,1-.15-21.57l.15,0c8.49-1.17,17.55-1.35,25.47-1.59,4-.21,8.4-.21,12-.48a83.49,83.49,0,0,0,10.89-1.23,103.5,103.5,0,0,1,14.22-1.29c4.8,0,8.91.12,13.38.48s8.85.81,12.78,1.29,8,.93,12.18,1.53Z"/></g><path class="cls-8" d="M2205.61,1026.6c-14.4,0-26.75-5.49-37.64-10.34-2.31-1-4.59-2-6.86-3-15.57-6.46-28.08-14.53-38.23-24.68-12-12-20.54-24.33-26.06-37.66-5.34-12.87-10.79-28.28-10.79-45.07,0-17.79,2.7-33.34,8-46.2,5.17-12.48,14.66-21,23-28.56,2.55-2.3,5-4.46,7.11-6.62,10.17-10.17,21.36-20.62,36.52-26.91l1.59-.66c12.63-5.25,26.94-11.2,43.27-11.2,13.93,0,25.56,5.45,35.82,10.27,2.86,1.34,5.57,2.61,8.18,3.69,12.1,5,27.16,11.26,39,23.15l.46.46c10,10,21.4,21.4,27.67,36.53,6.07,14.63,6.57,30.77,6.57,46.06,0,16.6-5.09,31.15-10.58,44.4-1,2.32-1.88,4.69-2.81,7.07-4.34,11.19-9.26,23.86-19.15,33.75-10.71,10.71-24.62,16.41-36.89,21.44l-3.54,1.45c-1.58.65-3.16,1.33-4.77,2C2234,1021,2220.76,1026.6,2205.61,1026.6Zm0-210.88c-10.34,0-21.23,4.52-31.76,8.9l-1.61.67c-10.09,4.18-18.43,12-26.8,20.41-2.71,2.71-5.53,5.25-8.25,7.7-6.59,5.94-12.82,11.55-15.4,17.76-3.76,9.08-5.75,21.08-5.75,34.71,0,11.49,4.09,22.93,8.5,33.57,4,9.62,10.39,18.75,19.56,27.93,7.32,7.31,16.64,13.26,28.51,18.18,2.5,1,5,2.15,7.56,3.29,9,4,17.41,7.75,25.44,7.75,9,0,18.36-4,28.25-8.2,1.7-.72,3.38-1.44,5-2.13l3.65-1.5c10.6-4.34,20.61-8.44,27.06-14.89,5.41-5.41,8.8-14.14,12.39-23.39,1-2.59,2-5.18,3.06-7.71,5-12,8.29-22.19,8.29-32.91,0-12.77-.33-25-4.29-34.57s-12.72-18.35-21.17-26.8l-.46-.46c-7.13-7.12-16.65-11.4-29.33-16.65-3.24-1.34-6.38-2.82-9.42-4.25C2220.54,819.33,2212.85,815.73,2205.61,815.73Z"/><path class="cls-8" d="M565.34,917.21c-14.47,0-28.56-3-44.33-9.58A114,114,0,0,1,458.27,845c-5.6-13.52-8.33-28-8.33-44.35a113.32,113.32,0,0,1,8.6-44.24c6.18-14.9,12.2-28.15,23.31-39.25,11.72-11.72,24.53-20.51,38.08-26.13,14-5.82,29.26-11.21,45.41-11.21,14,0,29,3.39,45.77,10.35A120.83,120.83,0,0,1,650,716c11.8,11.8,18.25,27.36,23.43,39.86,5.72,13.79,8.5,28.43,8.5,44.76,0,17.28-5.13,32-10.15,44.08a113.1,113.1,0,0,1-25.1,37.22c-9.8,9.8-20.9,20.9-36.31,27.29C597.34,914.59,582.63,917.21,565.34,917.21Zm0-207.42c-11.45,0-23.51,4.61-33.92,8.92-9.9,4.1-19.44,10.71-28.36,19.63-7.22,7.22-11.7,17.21-16.81,29.53a82.78,82.78,0,0,0-6.31,32.75c0,12.48,1.92,22.92,6,32.86a84,84,0,0,0,46.52,46.43c12,5,22.44,7.3,32.84,7.3,13.27,0,24.22-1.87,33.49-5.71,9.91-4.11,18-12.21,26.59-20.79A82.53,82.53,0,0,0,644,833.2c4.08-9.84,7.86-20.6,7.86-32.59a85.26,85.26,0,0,0-6.21-33.27c-4.38-10.57-9.35-22.55-16.94-30.14a91.79,91.79,0,0,0-29.12-19.37C586.54,712.42,575.33,709.78,565.34,709.78Z"/><path class="cls-8" d="M1687.25,923.34c-19.9,0-40-9.18-56.71-25.85a79.48,79.48,0,0,1-23.08-56.71c0-20.16,8.47-39.29,24.48-55.3,17.31-17.31,35.92-26.09,55.3-26.09,19.16,0,37.13,8.65,54.93,26.46,16.84,16.84,25.37,35.32,25.37,54.94,0,20-8.43,38.63-25.06,55.25C1724.13,914.41,1706.05,923.34,1687.25,923.34Zm0-134c-11.3,0-22.45,5.66-34.09,17.3-10.42,10.42-15.69,21.88-15.69,34.09a49.69,49.69,0,0,0,14.29,35.5c10.85,10.84,23.78,17.06,35.5,17.06,10.59,0,21.4-5.89,34-18.52,10.79-10.79,16.27-22.25,16.27-34,0-11.53-5.43-22.56-16.59-33.72C1708.91,795,1698.2,789.39,1687.25,789.39Z"/><path class="cls-8" d="M236.74,1932.63c-25.16,0-45.46-7-58.71-20.26-13.74-13.74-21.62-35.14-21.62-58.71a80.93,80.93,0,0,1,23.46-56.87c15.45-15.45,36.17-24.31,56.87-24.31,20.46,0,40.51,8.78,56.45,24.72s24.74,36,24.74,56.45a81.79,81.79,0,0,1-23.73,57.45C280.33,1925,259.92,1932.63,236.74,1932.63Zm0-130.14c-12.8,0-25.79,5.65-35.65,15.52a50.73,50.73,0,0,0-14.68,35.65c0,15.45,4.8,29.47,12.83,37.5,7.4,7.39,20.71,11.47,37.5,11.47,15.16,0,28-4.52,36.24-12.73a52.29,52.29,0,0,0,14.95-36.24c0-16.78-10-29.28-16-35.24S253.54,1802.48,236.74,1802.48Z"/><path class="cls-8" d="M1981.11,1293.51a84,84,0,0,1-58.18-24c-14.9-14.9-23.8-36.65-23.8-58.18,0-21,8.92-42,24.46-57.52,13.21-13.21,32.56-19.91,57.52-19.91,23.92,0,43,7,56.74,20.7a79.8,79.8,0,0,1-.59,112.88C2025.35,1279.33,2006,1293.51,1981.11,1293.51Zm0-129.66c-16.94,0-28.82,3.64-36.31,11.13-9.81,9.81-15.67,23.38-15.67,36.31,0,13.54,5.75,27.71,15,37a54.09,54.09,0,0,0,37,15.26c14.58,0,27-9.4,34.93-17.29,6.79-6.79,14.89-18.37,14.89-34.93a49.74,49.74,0,0,0-14.3-35.52C2008.73,1167.86,1996.78,1163.85,1981.11,1163.85Z"/><path class="cls-8" d="M2770.5,2256.52c-20,0-40.86-9.34-57.13-25.62s-25.66-37.13-25.66-57.13c0-18.83,9-36.95,27.41-55.39,17.24-17.24,35.88-26,55.39-26,19.67,0,38.94,8.87,55.72,25.65,17.77,17.77,26.77,36.52,26.77,55.73,0,21.65-9,43.54-24,58.54S2791.68,2256.52,2770.5,2256.52Zm0-134.12c-11.26,0-22.76,5.79-34.18,17.2-12.7,12.7-18.62,23.56-18.62,34.18,0,12.1,6.15,25.19,16.88,35.92s23.79,16.83,35.92,16.83a55.42,55.42,0,0,0,37.33-15.42c9.21-9.22,15.17-23.87,15.17-37.33,0-11-6.05-22.58-18-34.52C2797.32,2131.57,2785.09,2122.4,2770.5,2122.4Z"/><path class="cls-8" d="M2490.5,1353.51c-11,0-27.18-1.48-40-14.28-13.18-13.18-19.58-26.25-19.58-40,0-15,6.75-31.09,17.6-42,12.21-12.21,29.56-14.77,42-14.77,15.7,0,30.09,5.75,40.54,16.19a57.87,57.87,0,0,1,17.06,40.54c0,14.26-6.19,28-17.9,39.7C2520.4,1348.75,2507.41,1353.51,2490.5,1353.51Zm0-81c-9.38,0-16.94,2.18-20.75,6-5.27,5.27-8.82,13.61-8.82,20.74,0,5.29,3.63,11.61,10.79,18.77,2.72,2.72,7.08,5.5,18.77,5.5,11.19,0,15.63-2.92,18.49-5.78,6-6,9.11-12.27,9.11-18.49a27.67,27.67,0,0,0-8.27-19.32C2505.05,1275.14,2498.19,1272.51,2490.5,1272.51Z"/><path class="cls-8" d="M1906.73,1998.71c-18.55,0-30.86-10.16-38.51-17.81s-20.12-20.12-20.12-38.52c0-13.78,6.37-27.13,18.94-39.69s26-19,39.69-19c14.54,0,29.41,6.53,40.81,17.92,7,7,18.73,21.6,18.73,40.81,0,14.37-6.84,29.79-18.29,41.24C1938.1,1993.5,1923.84,1998.71,1906.73,1998.71Zm0-85.06c-5.54,0-11.58,3.35-18.48,10.25s-10.15,12.87-10.15,18.48,5.13,11.11,11.33,17.31c6.41,6.41,11.43,9,17.3,9,8.85,0,16-2.24,20-6.3,5.86-5.86,9.5-13.54,9.5-20,0-6-3.71-13.37-9.94-19.59C1920.6,1917.07,1913.27,1913.66,1906.73,1913.66Z"/><path class="cls-8" d="M927.31,2550.88a62.09,62.09,0,0,1-42.41-17.58c-12.11-12.11-14.65-29.74-14.65-42.41,0-16.74,5.52-31.48,15.55-41.51,11.13-11.14,26.65-17.78,41.51-17.78a59.1,59.1,0,0,1,59.36,59.29c0,13.62-6.4,26.64-19.56,39.8C958.44,2539.36,944.88,2550.88,927.31,2550.88Zm0-89.27c-6.86,0-14.83,3.53-20.29,9-4.23,4.24-6.76,11.82-6.76,20.3,0,9.6,2.19,17.53,5.86,21.2a32.4,32.4,0,0,0,21.2,8.79c6.44,0,13.69-6.51,18.59-11.4,7.25-7.25,10.77-13.33,10.77-18.58a29.1,29.1,0,0,0-29.36-29.29Z"/><circle class="cls-8" cx="1474.27" cy="1481.08" r="31.33"/><circle class="cls-8" cx="1525.96" cy="2480.47" r="31.33"/><circle class="cls-8" cx="2690.44" cy="1679.46" r="31.33"/><circle class="cls-8" cx="1948.97" cy="666.39" r="31.33"/><circle class="cls-8" cx="472.07" cy="1111.67" r="31.33"/><path class="cls-8" d="M328.73,1570.56c-18.11,0-30.72-12.61-39.06-21-12-12-17.82-24.76-17.82-39.06,0-17.23,5.35-32.08,15.08-41.8,10.32-10.33,26-16.49,41.8-16.49,16.47,0,32.28,6,42.3,16s16.17,25.94,16.17,42.3c0,14-6.4,27.83-18.52,39.95C360.07,1559.11,346.55,1570.56,328.73,1570.56Zm0-88.31c-7.82,0-15.9,3-20.58,7.71-4,4-6.29,11.5-6.29,20.59,0,6.1,2.78,11.6,9,17.85,5.42,5.42,12.17,12.17,17.84,12.17,5,0,11.14-3.69,18.74-11.28,4.44-4.44,9.73-11.29,9.73-18.74,0-8.19-3-16.67-7.38-21.08S337.16,1482.25,328.73,1482.25Z"/></g><g id="outline"><path class="cls-9" d="M1585.15,1999.39l0,0C1585.05,1999.09,1585.13,1999.16,1585.15,1999.39Z"/><g id="_Group_11" data-name="&lt;Group&gt;"><path class="cls-9" d="M1294.45,1597.63a80.29,80.29,0,0,1-1.86,19.83,60.92,60.92,0,0,1-8.31,19.41,80.6,80.6,0,0,1-12.9,15,167.5,167.5,0,0,1-14.07,11.52,75.93,75.93,0,0,1-17.49,9.9,48.28,48.28,0,0,1-11.07,2.79,48.83,48.83,0,0,1-5.91.36c-1.83,0-3.6-.15-5.37-.3a70.59,70.59,0,0,1-19.71-5.19,96.29,96.29,0,0,1-16.83-9.15,121,121,0,0,1-14.58-11.58,98.6,98.6,0,0,1-12.63-14.22,69,69,0,0,1-5.43-8.67,77.06,77.06,0,0,1-3.93-9c-2.19-5.91-3.72-11.49-5.22-16.74l-.63-2.07a67.37,67.37,0,0,0-6.09-9.06c-10-12.18-25.14-16.74-40.41-14.79a8.5,8.5,0,0,1-2.34-.09c-1,.18-2.1.39-3.36.63a56.29,56.29,0,0,0-11.64,3.45,81.47,81.47,0,0,1-16.14,4.8c-3.66.72-5.52,2-7.44,4.83a10.26,10.26,0,0,0-1.8,8.76c1.32,6.48,1.83,9.81,2.34,13.05.51,3.09,1,6,2.16,12s1.92,8.67,2.7,11.64c.84,3.24,1.74,6.57,3.06,13.2a80.89,80.89,0,0,1,1.71,14.79,52.55,52.55,0,0,0,1.23,10.56,54.38,54.38,0,0,0,2.91,10.23,76.73,76.73,0,0,1,4.11,14.31,50,50,0,0,1,.81,16.68,25.28,25.28,0,0,0,.42,9c1.29,6.51,1.8,9.81,2.31,13.05.51,3.09,1,6,2.16,12,.51,2.55,3.63,6.15,7.56,8.79,2,1.35,5.94,1.62,10.47.72,6.75-1.35,10.23-1.92,13.56-2.46s6.36-1.05,12.69-2.34a76.4,76.4,0,0,1,15.69-1.65,51,51,0,0,0,11-1.17,38.93,38.93,0,0,0,10-3.21,64,64,0,0,1,15.57-5,72.92,72.92,0,0,1,15.75-1.65,48.07,48.07,0,0,0,10.89-1.14,42.56,42.56,0,0,0,10.29-3.18,70.76,70.76,0,0,1,15.33-4.74c6-1.2,8.91-2,12-2.88,3.42-1,6.93-2,14-3.36,6.39-1.26,9.45-2,12.72-2.7s6.66-1.53,13.35-2.88c7.05-1.41,10.68-1.83,14.16-2.28a121.83,121.83,0,0,0,12.21-2c6.63-1.32,10-1.92,13.32-2.52s6.45-1.17,12.87-2.46a11.7,11.7,0,0,0,8.07-5.13c2.7-4.05,3.81-7.32,3.33-9.78a87,87,0,0,1-1.83-14.49,69,69,0,0,0-1.38-10.83,36.42,36.42,0,0,0-3-9.42,61.1,61.1,0,0,1-4.8-15,52.3,52.3,0,0,0-3-10.14,78,78,0,0,1-4.17-14.4,54.72,54.72,0,0,1-1-16.26,28.71,28.71,0,0,0-.57-9.36,42,42,0,0,0-3-9.69,67.07,67.07,0,0,1-4.56-14.76,98.47,98.47,0,0,1-2-14.13c0-.33-.06-.63-.09-.93-2.16-3.48-5.07-6.15-9.21-6.63-11.7-1.38-9.21,17.55-8.19,24a8.27,8.27,0,0,1-.45,4.26c.09.54.18,1.08.24,1.62.24,1.53.42,3.15.6,4.62l.42,4.38C1294.18,1591.45,1294.39,1594.51,1294.45,1597.63Zm546.49-216.15a10.46,10.46,0,0,1,0,20.91h0c-3.9,0-7.74.12-11.52.3l-11.79.75c-8.37.45-16.38.54-24.69.39-4.17-.09-8.43-.33-12.24-.57s-7.53-.3-11.37-.3-7.62,0-11.13.24a86.33,86.33,0,0,0-10.53,1.41,102.8,102.8,0,0,1-13.08,1.74c-4.44.27-8.67.27-12.81.24s-8.55-.24-12.72-.63-7.71-.69-11.4-.84-7.35-.15-11.37-.12l-12,0-23.79.06c-4.08,0-8.28,0-12.54-.24s-8.4-.57-12.06-.81-7.38-.3-11.19-.3-7.71,0-11.46.18-7.41.39-11.52.66-8.4.48-12.51.54c-8.34.09-15.69.12-23.61.45-4,.12-8.13.24-12.18.3s-8,.09-12.24.06-8.52-.21-12.69-.54-7.71-.6-11.4-.72c-7.29-.24-15.42,0-23.34,0l-23.85.12c-4.14,0-8.37,0-12.72-.3s-8.55-.72-12.09-1-7.23-.36-11-.42-7.35,0-10.71.33-6.42.81-10.74,1.56a103,103,0,0,1-13.5,1.38c-2.19.09-4.5.09-6.42.09l-5.76.06c-3.81.09-7.44.24-11.37.48s-8.28.48-12.42.54-8.22.09-12.24.09l-12.15-.15-11.76-.21c-7.83-.06-15.69-.06-23.31.15s-16.23.57-24.21.54-16.11,0-24-.12l-23.73,0H1198c-7.83,0-16.2,0-24.21-.27-5-.15-9.78-.24-14.7-.27-2.79,1-4.8,2.07-4.38,5.67.33,2.64,1.89,5.25,3.84,7.74,1.83,1.08,3.63,2.13,5.37,3.21,4.68,2.85,9,5.37,13.83,7.92,2.43,1.29,4.53,2.37,6.9,3.51l7.41,3.48a139,139,0,0,1,16.14,8.55,72.9,72.9,0,0,1,15.33,12.9c4.29,4.71,7.77,9.36,11.1,13.5a113.56,113.56,0,0,0,10.05,11.31c3.72,3.69,7.83,7.53,12,11.91,2,2.13,4.14,4.44,6.12,6.93a50.24,50.24,0,0,0,22.68,4.71c.78-.15,1.59-.3,2.55-.51,9.69-1.92,21.09.69,30.51,7,8.19,5.46,13.92,14.67,16.17,25.92a104.71,104.71,0,0,1,2,14.16,77.06,77.06,0,0,0,1.53,11.07,40.6,40.6,0,0,0,3,9.69,69.36,69.36,0,0,1,4.56,14.76,54.75,54.75,0,0,1,1,16.26,28.88,28.88,0,0,0,.57,9.39,50.8,50.8,0,0,0,2.94,10.11,74.17,74.17,0,0,1,4.17,14.4,36.82,36.82,0,0,0,3,9.42,62.16,62.16,0,0,1,4.83,15,90.36,90.36,0,0,1,1.83,14.49,62.07,62.07,0,0,0,1.38,10.83c1.89,9.51-.54,19.41-7.2,29.43a38,38,0,0,1-24.72,16.26c-6.66,1.32-10,1.92-13.35,2.52-3.21.6-6.42,1.17-12.84,2.46-7.05,1.41-10.68,1.86-14.16,2.28-3.18.39-6.15.75-12.21,2-6.36,1.26-9.42,2-12.69,2.73s-6.66,1.5-13.38,2.85c-6,1.2-8.91,2-12,2.88-3.39,1-6.93,2-14,3.36a44.11,44.11,0,0,0-10.26,3.18,67.87,67.87,0,0,1-15.36,4.74,74.76,74.76,0,0,1-15.75,1.65,49.63,49.63,0,0,0-10.89,1.11,39.34,39.34,0,0,0-10,3.21,63.71,63.71,0,0,1-15.57,5,76.34,76.34,0,0,1-15.66,1.65,51,51,0,0,0-11,1.17c-6.75,1.35-10.2,1.92-13.56,2.49s-6.36,1.05-12.69,2.31a52.16,52.16,0,0,1-10.11,1.05,35.63,35.63,0,0,1-20-5.64c-4.74-3.15-16-11.94-18.72-25.44-1.29-6.51-1.83-9.84-2.34-13.05s-.93-6-2.13-12a50.87,50.87,0,0,1-.81-16.68,25.28,25.28,0,0,0-.42-9,54.38,54.38,0,0,0-2.91-10.23,76.73,76.73,0,0,1-4.11-14.31,78.5,78.5,0,0,1-1.71-14.79,54.63,54.63,0,0,0-1.23-10.56c-1.17-5.88-1.92-8.67-2.7-11.64-.84-3.24-1.71-6.57-3.06-13.2-1.29-6.48-1.8-9.81-2.34-13s-1-6-2.16-12a37.66,37.66,0,0,1,29.76-44.37,55.32,55.32,0,0,0,11.61-3.45,81.92,81.92,0,0,1,16.17-4.8,105.11,105.11,0,0,1,16.08-2.1,77.37,77.37,0,0,0,12.63-1.65c1.62-.33,3-.66,4.14-1a41.5,41.5,0,0,0,13.62-15.3c0-2.19,0-4.41.12-6.69-.63-3.51-1.77-6.9-4.5-9.21-3.9-3.3-9.66-4.26-14.49-5.37a8,8,0,0,1-3-1.35c-.9-.27-1.8-.57-2.7-.84l-4.38-1.59-8.52-3.24c-5.73-2.25-10.89-4.35-16.32-6.36s-10.86-4-16.17-5.7c-5.13-1.65-11.31-3.39-17.16-5.46L1007,1472.38c-11.22-4.17-21.84-8-33.3-12-5.64-2.07-11.19-4.11-16.89-6.3l-16.53-6.54-16.56-6.21c-5.7-2.19-11.28-4.56-16.53-6.63s-10.8-4.14-16.35-6.21l-16.59-6.12-2.49-.9a360.72,360.72,0,0,0-62.07-14.25c-3.18.27-6.3.42-9.3.45a116.5,116.5,0,0,1-13.59-.51,121.93,121.93,0,0,1-13.17-2.16,70.21,70.21,0,0,0-10.32-1.23c-3.54-.18-7.47-.18-11.13-.06s-7,.45-11,1-8.82,1.05-13.23,1.2-8.7.18-13.14,0a119.57,119.57,0,0,1-13.44-1.2c-4.41-.66-7.71-1.2-11.31-1.47s-7.44-.39-11.1-.33a63.13,63.13,0,0,0-10.32.81c-3.21.48-7.5,1.62-12.33,2.28a95.72,95.72,0,0,1-13.8.81,103.69,103.69,0,0,1-13.74-.87c-2.37-.33-4.71-.78-6.84-1.23s-3.93-.87-5.67-1.2a66.42,66.42,0,0,0-10.35-1.05l-2.76-.06h-2.94l-5.82.09c-3.84.09-7.56.33-11.73.63s-8.61.45-12.84.48l-12.24,0c-4,0-7.83.09-11.85.24s-8.34.3-12.51.33-8.28,0-12.51-.09-8.52-.24-12.72-.54-8-.6-11.85-.75-7.68-.18-11.91-.24-8.43-.15-12.69-.42-8.22-.63-12.06-.81-7.77-.27-11.73-.3h0a10.47,10.47,0,0,1,0-20.94c4.17,0,8.37,0,12.66.18s8.46.45,12.27.63,7.74.24,11.7.24,8.25,0,12.48.09,8.61.39,12.51.63,7.71.33,11.64.33,8,0,11.88-.09,7.83-.24,11.88-.45,8.37-.36,12.51-.45l12.18-.15c3.9-.09,7.65-.3,11.52-.6s8.34-.69,12.63-.87l6.36-.18,3.15,0,3.33,0a85.74,85.74,0,0,1,13.92,1.26c2.28.39,4.47.87,6.3,1.23s3.51.66,5.16.87a86,86,0,0,0,10.62.51,72.65,72.65,0,0,0,10.5-.75c3.21-.45,6.81-1.47,11.61-2.34a90.5,90.5,0,0,1,14-1.32c4.47-.12,8.7-.06,13.29.24s9.24,1,12.9,1.47a93,93,0,0,0,10.83.81c3.72.06,7.62,0,11.28-.18a106.76,106.76,0,0,0,11-1.17,131.4,131.4,0,0,1,13.26-1.32c3.63-.18,7.11-.21,10.74-.15,13.56-1,32.46-2.28,33.51-17.82a60.48,60.48,0,0,0-1.77-17.34c-1.92-5.55-3.78-10.89-5.79-16.11-.93-2.37-2.28-5.76-3.27-8.73s-2-6-2.82-8.88c-1.77-5.79-3.36-11.37-5.13-16.65-.87-2.7-1.71-5.16-2.73-7.89l-3.09-8.1c-2.13-5.46-4.32-11-6.45-16.71-1-2.88-2-5.76-3-8.7l-1.35-3.93-1.41-3.84c-2-5.13-4.44-10.5-6.75-16.2a120.23,120.23,0,0,1-6.12-18.48c-2.85-13.14-2.79-25.11-4.83-35.25l-.06-.15a9.17,9.17,0,0,1,17.73-4.56,142.73,142.73,0,0,1,4.17,18.42,143.07,143.07,0,0,0,3.66,16.14c2.88,9.6,8.67,19.53,13.8,31,.66,1.44,1.29,2.88,1.92,4.38l1.71,4.38c1,2.64,2.1,5.28,3.21,7.92l6.87,16.2,3.51,8.34c1.14,2.79,2.34,5.88,3.36,8.79,2.1,5.88,3.87,11.67,5.64,17.16.9,2.73,1.8,5.4,2.73,8s1.86,4.74,3.09,7.83c2.31,5.79,4.35,11.55,6.33,17.13s3.87,11,5.91,15.78a66.23,66.23,0,0,0,7.35,12.81,98.4,98.4,0,0,0,10.2,11.76c.9.9,2,1.89,2.79,2.64s1.71,1.5,2.64,2.22a58.21,58.21,0,0,0,5.91,4,103.63,103.63,0,0,0,14.07,6.69c5,1.92,10.8,4,16.26,5.94l16.74,6c5.55,2,11.19,4.05,16.89,6.24l16.44,6.45,1.32.51a18,18,0,0,0,7.47-1.53,12.82,12.82,0,0,0,4.92-4.14c1.86-22.38,13.23-39.15,26.37-50.67.72-6.06-2.85-7.41-7.47-9.66a26.76,26.76,0,0,1-3.78-2.25c-.78-.39-1.53-.78-2.28-1.17a167.35,167.35,0,0,1-15.48-9.15,152.34,152.34,0,0,0-13.14-8.25c-4.14-2.37-10.05-5-16.08-9.69a40.85,40.85,0,0,1-8.43-8.94c-.63-.9-1.2-1.83-1.74-2.79l-1-1.86-2-3.66a179.79,179.79,0,0,1-8-16.14c-1.2-2.88-2.34-5.91-3.3-9a70.34,70.34,0,0,1-2.37-10c-1.05-7.17-.75-13.38-.63-18.9a99.91,99.91,0,0,0-.3-14.67c-.6-5-1.53-10.38-2.43-15.78s-1.86-11-2.67-16.68l-.6-4.2-.54-3.72c-.42-2.49-.9-5-1.44-7.62l-3.57-16c-1.23-5.4-2.4-11.64-3.18-17.19s-1.5-10.83-2.49-15.57a67.54,67.54,0,0,0-1.77-6.78c-.3-1-.81-2.31-1.26-3.51l-1.38-3.69a137.17,137.17,0,0,0-13.83-27.21,123.63,123.63,0,0,0-20.4-22.71l-.09-.06a9.17,9.17,0,0,1,11.4-14.34,129.9,129.9,0,0,1,26,24.57c7.68,9.57,13.38,20.16,18.24,30.81l1.74,4c.57,1.38,1.11,2.58,1.71,4.23a87.18,87.18,0,0,1,2.88,9.18c1.56,6,2.52,11.73,3.51,17.07s2,10,3.36,15.39,2.82,10.65,4.11,16.29c.63,2.82,1.26,5.7,1.8,8.67l.78,4.47.63,4c.87,5.22,1.89,10.53,2.88,16,2,3.6,4,7.23,6.06,10.83a74.53,74.53,0,0,0,4,6.72c3.84,5.31,5,6.63,11.76,5.76,13.56-1.74,25.2-16.92,33-27.57a8.16,8.16,0,0,1,2.88-2.46A126.08,126.08,0,0,0,989,1165c4.35-15.69,5.64-32.52,5.4-49.5v-.15a9.16,9.16,0,0,1,18.27-1c.51,5,.84,10.11,1,15.24a9,9,0,0,1,.48,2.46c1,27.9,3.45,55,19.65,77.46.36.42.72.81,1.08,1.2q5.18,5.9,10.35,11.49c3.42,3.72,6.9,7.29,10.44,10.65a129.67,129.67,0,0,0,10.92,9.39c3.84,3,7.92,5.85,12.15,8.73s8.67,5.79,13.38,9.24,8.85,7.11,12.6,10.05a46.62,46.62,0,0,0,10.35,6.57,14.65,14.65,0,0,0,2.46.87l3.51,1.08c2.25.63,4.47,1.23,6.6,1.62s4.26.75,6.78,1.05,5.49.63,8.52,1.17a123.67,123.67,0,0,1,17,4.53l15,4.92,9.57,3.12c4.05.18,8.58,0,11.4-2.58a50.72,50.72,0,0,1,9.72-21.45c2.49-4.44,5.13-9.09,3.3-12.9-1.32-.81-2.61-1.62-3.84-2.4-2.16-1.44-4.05-2.67-6-3.81s-3.84-2.19-5.88-3.3l-3.09-1.59-3.33-1.65c-4.62-2.28-9.42-4.83-14-7.5s-8.28-4.89-12.54-7.11l-13.14-6.57c-8.79-4.35-18-8.7-27-13.32l0,0a10.45,10.45,0,0,1,4.77-19.74,15.59,15.59,0,0,0,2.43-.9c1.38-1.26,1.89-2.94,1.11-5.55-.33-1.11-.69-2.25-1-3.36-4.08-7.53-8.13-15.24-11.82-23.25-2.88-6.27-5.1-12.63-7.26-18.78-1.92-5.52-3.75-10.74-5.94-15.63-3.9-8.73-8.34-17.49-12.6-26l-3.27-6.48c-1.35-2.7-2.67-5.4-4-8.1-4.08-8.34-7.92-16.2-12.45-23.22s-10.44-13.05-16.8-19.53c-2-2-4-4.08-6-6.15-.27-.3-.57-.6-.84-.9-2.76-2.49-5.91-4.74-9.45-5.1-5.67-.54-10.38,4.35-14.25,7.89a8.43,8.43,0,0,1-2.88,1.77c-7.77,7-17.4,10.14-26,13l-1.35.42c-1.44.48-2.91,1-4.38,1.5-7.71,2.67-16.35,5.67-26.25,5.67-.72,0-1.44,0-2.19-.06a123.63,123.63,0,0,1-32.43-6.36c-8.76-2.85-16.14-7.65-23.28-12.3-1.74-1.14-3.51-2.28-5.28-3.39-2.43-1.53-5.22-3-8.19-4.47-6.51-3.3-13.92-7.05-19.74-13.35a115,115,0,0,1-19.56-27.69,85.62,85.62,0,0,1-3.48-8.28c-1.23-1.35-2.46-2.85-3.84-4.44-3.3-3.84-11.79-2.52-18.81-1.08-2.1.69-4.11,1.44-6.39,2.31-5,1.86-9.81,3.81-14.58,5.91s-9.36,4.32-13.83,6.75c-2.28,1.2-4.38,2.4-6.42,3.69s-4.11,2.64-6.12,4.11c-4.08,2.91-8.1,6.09-12.15,9.51l-6.18,5.22c-2.25,1.92-3.69,3.18-5.43,4.92-6.78,6.57-13.05,15.21-20.64,24.06a154.92,154.92,0,0,1-12.54,12.81c-4,3.78-7.71,7.26-10.86,10.77-5.79,6.39-11,15.75-16.29,25.11-5.43,9.51-10.08,19.23-15,28.83l-7.35,14.61c-2.55,5.1-5.13,10-7.65,14.82s-4.92,9.48-7.08,14.16l-6.48,15-6.45,15-1.59,3.72q-.68,1.53-1.26,3.15c-.81,2.19-1.56,4.56-2.28,7-1.44,4.92-2.76,10.35-4.62,16.17a88.51,88.51,0,0,1-3.33,8.85c-1.23,2.82-2.58,5.52-3.9,8.13-2.73,5.19-5.49,10-7.92,14.55a97.19,97.19,0,0,0-6.09,13.59c-1.8,4.83-3.42,9.9-5.13,15.15-.87,2.64-1.77,5.34-2.76,8.1s-2.16,5.64-3.24,8.22-2.28,5.31-3.6,8-2.85,5.55-4.29,8-2.4,4.2-3.45,6.39-2,4.53-3,6.93l-.06.15a10.45,10.45,0,0,1-19.56-7.35c1-2.76,1.92-5.52,3.12-8.37s2.7-5.88,4-8.28,2.25-4.38,3.24-6.69,1.92-4.65,2.85-7.11,1.77-4.74,2.52-7.2,1.5-5,2.28-7.62c1.5-5.22,3.09-10.68,5-16.2a121.07,121.07,0,0,1,6.9-16.65c2.58-5.19,5.16-10,7.41-14.61,1.11-2.31,2.13-4.56,3.06-6.78s1.56-4.26,2.28-6.63c1.44-4.68,2.64-10,4.17-15.57.78-2.82,1.65-5.73,2.67-8.73.54-1.5,1.11-3,1.74-4.5l1.59-3.87,6.3-15.36,6.36-15.36c2.37-5.34,4.89-10.44,7.41-15.42s5-9.78,7.35-14.49l7.38-14.91c5-10,9.78-20.1,15.21-29.73,2.7-4.89,5.46-9.84,8.52-14.85,1.56-2.52,3.18-5,5-7.59s3.93-5.22,6-7.59c8.4-9.42,17.1-16.23,22.89-23.28,6.66-7.86,13.32-17.1,22.26-25.92,2.16-2.13,4.86-4.5,6.81-6.12l6.39-5.43c4.35-3.63,8.94-7.29,13.8-10.77q3.69-2.61,7.56-5c2.61-1.65,5.31-3.15,7.86-4.53,5.22-2.82,10.5-5.34,15.78-7.65s10.62-4.47,16-6.48c2.58-1,5.55-2,8.4-2.91s5.73-1.71,8.55-2.43c11.31-2.94,21.9-5,32.43-7.53,4.68-1.11,9.45-2.22,14.31-3.24a62.32,62.32,0,0,0,21.24-16.11,611.34,611.34,0,0,0,29.55-58.56,35.06,35.06,0,0,0,.33-5.31c-.18-8-3.36-15.12-7.14-22-29.67-41.79-39.51-94.17-28-142.32,1.29-8.76,1.41-18.15-4.47-24.84-3.48-4-8-6-12-8.91-24.54-13.47-41.73-35.22-48.93-63.21-11.79-45.69,6.39-96.39,45.27-126.12,34.83-26.61,92.46-28.74,134.1-4.89,30,17.19,48.72,45.51,54.09,80.49,0,0,0,0,0,0,4.68,12.69,10.26,27.87,25.53,29.79a40,40,0,0,0,7.83.09c84-26.52,173.94-9.24,222.33,43.74,33.48,36.69,40.23,83.85,18.57,129.39-16.05,33.72-44.79,54.39-81.36,59.58-5.43,1.89-10.86,3.84-16.17,6-14.13,5.7-21.84,16.32-29.76,28.77a11.28,11.28,0,0,1-1.53,2c-2.28,3.78-4.56,7.56-7.11,11.19l-5.79,8.61-6.21,8.37-3.12,4.17-3.33,4c-2.22,2.67-4.41,5.34-6.69,8-4.74,5.1-9.39,10.32-14.46,15.12a254.35,254.35,0,0,1-32.28,26.82,218.15,218.15,0,0,1-37,20.58,59.08,59.08,0,0,1-5.52,2.16,53.84,53.84,0,0,1-6,1.71,65.54,65.54,0,0,1-12.3,1.65,61.28,61.28,0,0,1-24.33-4.17,64.53,64.53,0,0,1-7.68-3.69c-7.5-.45-14.49.36-19,7.35l-.63,1.32c-1.38,5.25-2.1,10.38,1.47,15,3.18,4.08,8,6.81,12.3,9.45a8.08,8.08,0,0,1,2,1.74c3.27,1.83,6.39,3.69,9.27,5.49,12.81,8,22.92,18,30.27,25.8,1.83,2,3.75,3.9,5.64,5.82,7,7.14,14.19,14.52,20.1,23.64,5.37,8.37,9.75,17.28,14,25.92,1.29,2.64,2.55,5.25,3.87,7.86l3.24,6.42c4.41,8.73,9,17.76,13.14,27.06,2.64,5.91,4.74,11.91,6.75,17.7s4,11.31,6.33,16.44c4.32,9.42,9.42,18.78,14.37,27.84l.63,1.17c6.42,11.1,12.84,22.41,21.78,31.71a106,106,0,0,0,16.14,13.11c1.62.78,3.27,1.56,5,2.34a155.72,155.72,0,0,1,14.43,7.11c2.4,1.38,4.74,2.85,6.78,4.11s3.9,2.37,5.88,3.45c3.93,2.13,8,4,12.69,6.09l27.42,12.27c4.74,2.22,8.64,4,12.75,5.49,2,.75,4,1.35,6.33,2s5,1.44,7.74,2.37a134.17,134.17,0,0,1,15.33,6.36,118,118,0,0,1,14.64,8.22,108.82,108.82,0,0,0,11.64,7.11c2,1,4,2,6.24,3l7.05,3.36c4.71,2.31,9.42,4.89,13.5,7,2.07,1.05,4.17,2.07,6.33,3.09l6.3,2.85c.87.3,1.59.6,2.52.9s1.86.6,2.85.81c1.92.51,3.93.9,5.94,1.23a75.47,75.47,0,0,0,12.6.75,102.55,102.55,0,0,0,13.05-1.23c1.08-.21,2.19-.36,3.27-.6l3.48-.72,7.56-1.53c5.1-1,10.38-1.89,15.48-2.61s9.72-1.35,14.43-2.19c2.34-.39,4.68-.84,7.05-1.32l7.35-1.53a64.16,64.16,0,0,1,19-1,55.61,55.61,0,0,1,18.9,5.43,58,58,0,0,1,8.34,5l6,4.47c1.83,1.32,3.57,2.46,5.43,3.6l6.57,4a149.86,149.86,0,0,1,13.32,9.57c2,1.53,4,3.12,5.94,4.71,12.15,6.27,23,14.94,37.26,16.77,10.65,1.38,20.94,1.38,31.11,2.73a86.94,86.94,0,0,1,11.31-1.38c1.53-.09,3-.12,4.44-.18l4.11-.06a52,52,0,0,0,6.12-.48,42.4,42.4,0,0,0,11.52-3.27,34.62,34.62,0,0,0,9.39-6.15,29.8,29.8,0,0,0,3.57-4c.45-.75,1.05-1.41,1.44-2.22s.84-1.35,1.44-2.61c1.11-2.22,2.13-4.38,3.12-6.54s1.8-4.23,2.7-6.6,1.92-5.1,3.09-7.8,2.34-5.28,3.57-7.8l3.48-7c1.05-2.19,2-4.29,2.88-6.45s1.68-4.38,2.7-7,2.1-5.4,3.3-8,2.43-5.16,3.69-7.65l3.6-7.05,7.26-14,7.32-14.19c1.38-2.55,2.82-5.13,4.47-7.68s3.48-5,5-7.05,2.73-3.78,3.93-5.67,2.34-3.93,3.48-6.06c2.34-4.44,5.16-9.75,8.25-14.55s5.64-8.43,8-12.72,4.8-8.67,6.57-12.75c.93-2.07,1.68-4.08,2.49-6.48s1.8-5.25,2.94-8a157,157,0,0,1,7.35-15c2.4-4.47,4.26-8.55,6.45-13.59s4.86-10.11,7.5-14.82a10.47,10.47,0,0,1,18.69,9.39l0,.06c-2.13,4.68-4,9.12-5.76,13.77s-3.84,10.32-6.12,15.27l-3.3,7.08c-1,2.19-1.86,4.32-2.61,6.42s-1.41,4.26-2.19,6.87-1.74,5.58-2.82,8.34a155,155,0,0,1-7.23,15.54c-2.61,5-6,10.2-8.46,14.13-2.52,4.08-4.53,8.07-7,13-1.29,2.52-2.7,5.1-4.23,7.68s-3.3,5.16-4.89,7.35-2.82,4-4,5.91-2.28,3.87-3.39,5.94l-7.05,13.86-7.14,14-3.54,7c-1.08,2.22-2.16,4.41-3.09,6.54s-1.8,4.26-2.67,6.54-1.77,5-2.88,7.68-2.28,5.4-3.51,8l-3.51,7.17c-1.05,2.19-2.07,4.35-3,6.51s-1.71,4.32-2.67,6.87-2,5.34-3.21,8-2.37,5.22-3.63,7.71c-.51,1.11-1.47,2.79-2.31,4.29s-1.89,2.94-2.85,4.38a56.74,56.74,0,0,1-6.9,7.74c-1.35,1.26-2.73,2.4-4.17,3.51-3.75,3.69-9,9.48-7.86,12.36.57,1.41,3.21,2.43,6.36,3.18l7,.06c4,0,8.22.06,12.48.27s8.64.69,12.36,1.05,7.29.57,11.07.66,7.56.09,11-.09a80.23,80.23,0,0,0,10.56-1.2,104.75,104.75,0,0,1,13.11-1.5c4.44-.21,8.67-.15,12.72-.09s8.34.27,12.45.6,7.77.6,11.55.72c7.56.3,15.45.33,23,.06,3.75-.15,7.83-.42,12-.54S1836.85,1381.45,1840.93,1381.48Zm-331-31.23c4.29-1.41,6.12-3.06,3.93-7.56a15.13,15.13,0,0,0-2-3.06l-.06-.06c-2.43-1.44-4.86-3-7.11-4.62l-6.12-4.44a30.36,30.36,0,0,0-4.53-2.67,29.51,29.51,0,0,0-9.84-2.73,36.6,36.6,0,0,0-10.89.63l-7.38,1.53c-2.52.51-5.1,1-7.68,1.47-5.16.93-10.44,1.65-15.27,2.34s-9.39,1.44-14.13,2.37l-7.11,1.47-3.9.81c-1.38.27-2.76.48-4.11.75a124.89,124.89,0,0,1-16.83,1.59,97.11,97.11,0,0,1-17.34-1.11,80.78,80.78,0,0,1-8.73-1.86c-1.47-.36-2.91-.84-4.35-1.29s-3.09-1.11-4.56-1.68l-3.78-1.71-3.54-1.68c-2.37-1.11-4.8-2.31-7.14-3.54-4.8-2.49-8.88-4.77-13.14-6.9l-6.48-3.15c-2.22-1.08-4.8-2.31-7.23-3.57a135.71,135.71,0,0,1-14-8.61,89.12,89.12,0,0,0-11.49-6.54,117.62,117.62,0,0,0-12.33-5.25c-2-.69-4.11-1.32-6.6-2s-5.28-1.62-8-2.61c-5.31-1.92-10.47-4.38-14.79-6.45l-2.82-1.32c-7.62-2.16-15.51-1.83-21.33,5.07a8.09,8.09,0,0,1-1.83,1.59,24.86,24.86,0,0,0-5.94,13.89c1.65,8.79,10.26,14,18.57,17.73,2.85,1,5.7,1.89,8.55,2.88,5.07,1.77,9.84,3.45,14.73,5.1,9.66,3.18,20.16,6.6,30,10l14.76,5c4.83,1.59,9.42,2.94,14,4l7.5,1.62c2.73.57,5.58,1.26,8.34,2,5.46,1.47,10.89,3.3,15.54,4.8a71,71,0,0,0,12.9,3.09c3,.39,9.06.15,14,.12l15.69-.45,8.07-.12,7.74-.06c2.43-.06,4.83-.15,7.17-.3s4.62-.42,7.26-.72,5.55-.63,8.43-.84,5.76-.27,8.55-.33c5.58-.06,11,0,16.8.33,2.85.18,5.7.45,8.25.69s4.86.42,7.26.54c4.77.24,9.9.24,14.76.15,2.13-.06,4.11-.15,6.12-.3C1501,1353,1505.5,1351.68,1509.91,1350.24Zm-190.59,30.66c3.66-2,6.24-4.59,3.21-7.71-2.07-2.16-6.48-2.58-9.09-4.05-.36-.21-.69-.45-1.05-.69-4.26-1.11-8.43-2.34-12.36-3.63l-15.12-5c-10-3.51-19.5-6.57-29.79-10-5-1.68-10.17-3.48-15-5.19s-9.72-3.33-14.67-4.92a126.58,126.58,0,0,1-16.35-6.48c-2.7-1.32-5.13-2.67-7.2-3.75s-4.05-2-6.12-2.85-4.29-1.68-6.6-2.43l-7.35-2.43-15-4.89-15-4.89a92.65,92.65,0,0,0-13.44-3.63c-2.13-.39-4.32-.66-7.05-1s-5.82-.75-8.79-1.35-5.88-1.35-8.67-2.13l-4.05-1.23a46.66,46.66,0,0,1-4.92-1.77,72,72,0,0,1-16.29-10.08c-4.53-3.57-8.34-6.9-12-9.6-7.62-5.55-17.16-11.4-26-18.3a158.29,158.29,0,0,1-13-11.13c-4.08-3.87-7.89-7.83-11.61-11.82s-7.23-8-10.74-11.94c-2.22-2.49-4.65-5.22-7-8a15,15,0,0,0-8.82-3.06c-4.53,0-8.4,2.31-11.79,5.28a1.65,1.65,0,0,1-.21.27c-10.59,15.63-23.1,28.83-32.19,41.94a83.76,83.76,0,0,0-10.2,19.38c-1.23,8.73-.24,17.52,6.45,23.64,4.71,4.29,9.72,7.44,14.31,11.37,2.22,1.29,4.5,2.58,6.93,3.84a130.64,130.64,0,0,0,13.71,6.45c4.59,1.8,10.86,4.14,16.17,6.78,5.46,2.67,10.32,5.31,15.39,8.1s10,5.85,14.49,8.4c2.28,1.29,4.62,2.58,7,3.84l7.35,3.93c2.64,1.41,5.37,2.94,8.07,4.5a223.17,223.17,0,0,0,68.85,14.82l3.12.06c2.1.06,4.23.15,6.3.27,4.29.06,8.58,0,12.9-.15a7.14,7.14,0,0,1,4,.93h.36c7.47,0,16.11-.06,24.06.27s15.39.3,23.43.3l23.82.06,24,.09c8,.09,15.78.18,23.7.18s15.21-.18,23.46-.48,16.29-.18,24.36-.12Zm-52.74,230.43a53.56,53.56,0,0,0,1.17-13.17c0-2.37-.18-4.86-.39-7.41l-.39-3.87c-.12-1.29-.27-2.43-.45-3.63a115,115,0,0,0-8.37-28.62c-4.56-11.28-7.47-21.18-12.09-28.65-4.29-7.26-11.82-14.1-20.07-22.32-2.07-2.07-4.14-4.17-6.27-6.6s-3.93-4.68-5.73-6.93c-3.57-4.5-6.75-8.73-9.9-12.18a46.31,46.31,0,0,0-10-8.49,124.12,124.12,0,0,0-13.17-7l-7.65-3.6c-2.61-1.26-5.43-2.73-7.86-4-5-2.67-10.26-5.64-15-8.55s-9.06-5.28-13.86-7.83c-2.28-1.2-5-2.61-7.62-4.08s-5.31-3.09-7.92-4.83-5-3.51-7.08-5-4-2.76-6.15-4c-4.17-2.46-9-5-13.44-7.05-2.25-1.05-4.44-2-6.78-2.85s-5-1.8-7.92-2.91c-.75-.3-1.47-.63-2.19-.93a12.79,12.79,0,0,1-7.2-3.21c-2.4-1.17-4.77-2.37-7-3.54-5-2.64-10.23-5.55-15.09-8.49s-9.12-5.37-13.89-7.89l-3.06-1.62c-6-2.82-12.21-5.19-18.84-5.82-10.86-1-18.48,4.23-27.33,8.88a47.62,47.62,0,0,0-11.7,31.35c1.08,4.77,2.94,9.18,7,12.6a124.33,124.33,0,0,0,12.33,8.67l7.14,2.55,16.77,6.18,33.06,12.18c5.28,1.92,10.5,3.45,16.59,5.49,5.94,2,11.64,4.14,17.25,6.27s11.4,4.59,16.65,6.72l8,3.15,4,1.47a18.28,18.28,0,0,0,2.46.69,27.88,27.88,0,0,0,6.15.6h.51a68.74,68.74,0,0,0,22-5.4,10.43,10.43,0,0,1,17.49,10c-3.12,12-8.16,22.26-9.57,30.81a53.21,53.21,0,0,0-.24,13.56c.39,4.86,1.29,10.08,2.1,15.78l.57,4.41.45,4.35c.27,2.49.57,5,1,7.47a137.81,137.81,0,0,0,3.33,14.88q1.08,3.74,2.25,7.47l2.52,8c1.65,5.34,3.18,10.44,4.92,14.88a53.74,53.74,0,0,0,2.79,6.15,39.19,39.19,0,0,0,3.48,5.34,74.23,74.23,0,0,0,9.57,10.38,96.93,96.93,0,0,0,11.58,8.88,71.43,71.43,0,0,0,12.33,6.63,44.11,44.11,0,0,0,12.33,3.21c1,.09,2,.15,2.91.15.81,0,1.59-.06,2.37-.15a22.5,22.5,0,0,0,5-1.35,49.21,49.21,0,0,0,11.22-6.57,140.46,140.46,0,0,0,11.58-9.6,56.29,56.29,0,0,0,8.7-10.08A33.64,33.64,0,0,0,1266.58,1611.34Zm-92.7-770.56c3.42-9.06,4.83-18.54,1.41-27.84-5.28-14.31-23.58-18.42-33.81-29.1a161.69,161.69,0,0,1-34.14-28,74.1,74.1,0,0,1-7.32-5.82c-7-6.36-11-12.45-21.09-13.8-7.08-.93-14.22.54-21.18,1.83a11,11,0,0,1-5.64-.42,68.44,68.44,0,0,1-8.58-.39,71.79,71.79,0,0,1-20.94-5.76l-.09,0a7.31,7.31,0,0,1-.84-.42c-6.66-3.6-13.83-5-20.4-3.27a22.24,22.24,0,0,0-14.88,12c-2.67,5.76-2.31,12.66,1.32,19.41s10.05,13.14,17.64,18.3l.12.09a10.44,10.44,0,0,1-9.87,18.27c-8.64-2-14.49-1.56-19.41,6.45q-1.4,2.3-2.7,4.59C945.69,892.38,909.81,947,908,949.62A45.12,45.12,0,0,1,896,960.39c-5.31.81-10.65,1.86-16,3.06l-1.77.54a13.56,13.56,0,0,0-9.63,14.19c.51,1.23,1,2.43,1.59,3.57,3.48,7.26,9,15.06,16,22.56,3.33,3.57,8.46,6.18,13.92,9,3.24,1.65,6.57,3.33,9.84,5.37,1.86,1.17,3.72,2.37,5.55,3.57,6.3,4.11,12.24,8,18.36,10a103.33,103.33,0,0,0,26.91,5.37c6.78.3,13.5-2,20.64-4.5,1.56-.54,3.15-1.08,4.71-1.59l1.35-.45a99.24,99.24,0,0,0,12.42-4.68c4.92-4,8.94-9.09,8.64-15.57-.18-3.6-1.35-6-3.09-7.44-1.38-.66-2.79-1.29-4.2-1.89-4.17-.69-9.33.75-13.44,2.82a8,8,0,0,1-5.07.75A10.41,10.41,0,0,1,973,990.75l12.63-32.46a112.33,112.33,0,0,0-4.38-64c-.63-1.17-1.23-2.34-1.83-3.54a10.46,10.46,0,0,1,18.42-9.9l.06.09a157.89,157.89,0,0,0,21.78,30,103.73,103.73,0,0,0,13.26,12c2.34,1.77,4.77,3.39,7.23,4.89a38,38,0,0,0,6.81,3.21,38,38,0,0,0,22.17.9c1.2-.3,2.4-.69,3.57-1.11s2.19-.84,3.69-1.56c4.65-2.13,9.21-4.53,13.71-7.08.06-.09.15-.18.21-.27a121.54,121.54,0,0,0,20.52-11.22c7.26-5,13.11-11.34,19.08-17.7,2.49-2.28,4.92-4.59,7.29-7,4.56-4.35,8.7-9.15,13-13.8l6-7.32,3-3.66,2.85-3.81Q1168.22,849.33,1173.87,840.78ZM1157.4,697c0-.15.06-.3.09-.42a.38.38,0,0,1-.18,0Z"/></g><path class="cls-9" d="M1793.54,2218.7c-.44-1.68-.89-3.17-1.25-4.39s-.62-2.2-.84-3.23a41.2,41.2,0,0,1-.74-6.82v-.21a10.46,10.46,0,0,0-20.91.21,62.61,62.61,0,0,0,.53,10.37c.27,1.81.63,3.6,1,5.2l.94,4a33.51,33.51,0,0,1,.66,6.48c0,2.27-.08,5.11-.26,7.59s-.49,4.75-1,7.59a90.28,90.28,0,0,0-1.1,9.59q-.14,2.42-.18,4.76l-.06,2.05c0,.57,0,1.15-.09,1.73a54.05,54.05,0,0,1-1,7,84.23,84.23,0,0,1-4.49,14.37,136.66,136.66,0,0,1-6.65,14.29,64.27,64.27,0,0,1-8.08,11.75c-.73.81-1.56,1.68-2.26,2.33a24.56,24.56,0,0,1-2.28,1.92,41.52,41.52,0,0,1-5.57,3.51,149,149,0,0,1-14.51,6.35c-2.86,1.16-5.1,2.07-7.58,3s-4.8,1.62-7.15,2.23a55,55,0,0,1-13.82,1.9c-2.52,0-5.47,0-8.11-.12s-5.33-.21-8.07-.41c-5.46-.44-12-.87-18-.91a141.84,141.84,0,0,0-19,.72c-3.32.38-6.45,1-9,1.34s-4.87.64-7.38.79-5,.18-7.81.19l-8.71,0c-11.83.12-22.75.26-34.49.22s-23.22.49-34.2.32c-2.58-.05-5.07-.16-7.42-.43s-4.61-.65-7.54-1.2-6.37-1.11-9.69-1.41-6.6-.46-9.73-.48-6.22,0-9.47.18-6.6.49-9.77.95a109.26,109.26,0,0,1-15.68,1.74c-1.27.05-2.6.05-3.91.07h-4.31l-8.82.08-17.15.34c-5.64,0-11.34.06-16.73-.09-2.72-.08-5.35-.21-8.14-.39s-5.84-.39-8.89-.52c-6.18-.25-11.94-.31-18.17-.19s-13.07.85-18.19,1.42a146.44,146.44,0,0,1-15.84.59c-5.67,0-11-.14-16.72-.4s-11.94-.42-17.77-.43-11-.08-16.4-.45-11.91-.87-17.88-.91-11.88-.06-18,.18c-3,.12-6.09.31-8.88.48s-5.44.29-8.17.36l-17.23.2c-3,.07-6.1.21-9.07.38l-8.38.45c-5.41.22-10.89.22-16.68.2l-34.33-.19a58.33,58.33,0,0,1-7-.46,56.4,56.4,0,0,1-6.92-1.39,92.31,92.31,0,0,0-9.77-2,83.44,83.44,0,0,0-10.23-.8c-3.38-.08-6.18,0-9.34,0s-6.28.26-9.41.54c-6.39.62-11,1.15-16.38,1.26-5.22.12-11.17.06-16.87.07l-17.26,0h-8.64c-2.95,0-6,0-9.17.16s-6.36.35-9.42.67-5.73.63-8.28.82-5.14.32-7.83.36l-4,.05c-1.29,0-2.62,0-3.87-.06a71.08,71.08,0,0,1-7.28-.54c-2.34-.29-4.79-.77-8-1.32a96.32,96.32,0,0,0-9.91-1.19c-3.32-.24-6.49-.27-9.62-.27s-6.23.11-9.47.32-6.61.61-9.58,1.05-5.42.8-7.88,1-5,.35-7.63.41a135.72,135.72,0,0,1-15.63-.51l-8.45-1c-3.16-.35-6.44-.58-9.57-.69s-6.36-.12-9.11-.11l-8.46,0-17.26-.33c-5.9,0-11.58-.12-17.95.11-3.12.12-6.38.36-9.48.7s-5.85.71-8.38.94-5.1.38-7.75.45-5.35.07-8.31.09c-2.76,0-5.56,0-8.34.07a13.47,13.47,0,0,1-3.14-1.29c-6.58-3.76-9.51-10.45-10.76-17.73,0-8,.27-12.06.55-16.28.3-4.53.61-9.21.61-18.43s-.34-13.95-.67-18.49c-.31-4.28-.6-8.31-.6-16.62a83.49,83.49,0,0,1,1.23-15.52,109.23,109.23,0,0,0,1.55-19.61c0-9-.17-13.6-.33-18s-.31-8.54-.31-17.08a108.66,108.66,0,0,0-1.56-19.61,82.81,82.81,0,0,1-1.24-15.49,52.84,52.84,0,0,1,1.72-14.55,78.11,78.11,0,0,0,2.42-20.56c0-16.57-8.2-30.6-14.79-41.87l-1.29-2.21c-8.4-14.45-19.11-25.53-31.83-32.92-11.43-6.64-26.82-14.27-44.48-14.27a136.18,136.18,0,0,0-21.06,1.43,110.93,110.93,0,0,1-17.54,1.19,79.71,79.71,0,0,1-17-1.55,105.45,105.45,0,0,0-21.64-2,101.85,101.85,0,0,0-21.72,2.05,76.26,76.26,0,0,1-16.85,1.6c-9.54,0-14.31-.08-19.08-.15s-9.75-.16-19.5-.16c-10.06,0-15.18.33-20.13.65-3.54.23-6.93.45-12.25.54-10-.75-19.88-1.48-27.19-9-11-11.3-12.06-28.16-12.74-43.19V1964a152.31,152.31,0,0,0,.79-15.53c0-4.72.11-9,.45-13.3s.93-9.54,1.11-14.69.2-10,.12-15-.45-10.38-.77-14.85-.4-8.78-.4-13.37a109.26,109.26,0,0,0-.94-16.09c-.39-2.78-.9-5.33-1.24-7.39s-.59-3.91-.75-5.88-.24-4-.24-6.16,0-4.53,0-6.74c.07-4.56.31-8.7.64-13.63s.46-10.13.47-15l0-14.39,0-4.7c2.26-16.87,6.86-37.33,23.58-41.16,6.11-1.4,12.16-1.7,18-2.41l13.31-.15h8.28c2.79,0,5.77,0,8.71,0,5.9-.07,12.14-.58,17.22-.88,5.25-.31,10.32-.33,16.09-.34s11.88-.23,17.52-.6,10.56-.52,16-.53,10.76,0,16,.34,11.37.81,17.24.89l8.62.08c2.69,0,5.32.06,7.91.17s5.11.27,7.84.5,5.76.47,8.77.62,6,.22,8.94.25,6,0,9.29-.17a74.7,74.7,0,0,0,10.11-1.22c3.42-.65,6.47-1.53,8.77-2.08a47.9,47.9,0,0,1,6.51-1.15c2.17-.26,4.59-.3,7-.35s5.06,0,7.42.22a70.49,70.49,0,0,1,7.05.84c2.44.4,5.48,1,8.75,1.43s6.52.67,9.63.77c1.58.07,3.1.07,4.64.09h4.12c2.66,0,5.27.09,7.85.21s5.14.33,8,.55,5.93.43,8.92.53,6,.16,8.87.15,6.08,0,9.25-.25a90.6,90.6,0,0,0,9.68-1.1c3.19-.54,5.82-1.11,8.14-1.47a90.12,90.12,0,0,1,14.78-.9c5.68,0,11.65-.24,17.3-.55s10.77-.5,16.29-.56,10.76-.08,15.95.2,11.31.82,17.22.87,11.56-.12,17.3-.29,11.48-.54,16.85-.76,10.95-.29,16.5-.45,11-.2,16.63-.24,11.37-.19,17-.4a10.47,10.47,0,0,0,.05-20.92h-.05l-16.58-.69c-5.54-.27-11.32-.53-17-.7s-11.33-.25-17.08-.25-11.31.16-16.72.12-11.05-.1-16.28-.34-10.21-.69-16.31-1.15-11.93-.54-17.63-.57-11.66.06-17.29.27-10.76.25-16.28.25a115.89,115.89,0,0,0-18.71,1.11c-3.22.49-6.06,1.09-8.4,1.46a64,64,0,0,1-7,.75c-2.42.13-4.87.17-7.54.15s-5.32-.08-7.92-.18-5.11-.29-7.84-.52-5.74-.49-8.75-.65-6-.25-8.94-.3l-4.28,0c-1.27,0-2.54,0-3.76-.09a70.41,70.41,0,0,1-7.1-.6c-2.28-.3-4.73-.8-7.81-1.34s-6.41-1-9.61-1.21-6.3-.3-9.37-.34-6.35.08-9.75.44a75.4,75.4,0,0,0-10,1.7c-3.14.75-5.49,1.4-7.57,1.77a47.7,47.7,0,0,1-6.56.73c-2.29.14-4.74.1-7.5.08s-5.28-.12-7.85-.24-5.12-.33-8-.56-5.92-.44-8.92-.56-6-.18-8.88-.18l-8.17-.07c-5.33-.07-10.26-.47-16.3-.84s-11.86-.39-17.61-.36-11.85.22-17.53.59-10.57.54-16,.56-11.56,0-17.48.4c-6.09.4-11,.88-16.31,1-2.66.08-5.28.1-8.08.12l-8.51.08-16.84.35-3.18,0c-1.79-.39-3.61-.74-5.54-1-7.22-1-16.78-1.13-20.44-8.67-3.9-8-2.58-17.18-4.76-25.78v-3.33l0-14.29c0-2.48,0-4.53.08-6.64s.22-4.15.43-6.15a61.36,61.36,0,0,1,2.26-11.46c.57-1.86,1.16-3.5,2-5.43l2.69-6.53c3.44-8.38,7-15.08,11.43-18.8,4.38-3.94,12.17-6.91,21.45-10.54,2.24-.89,5-2.09,7.29-3.18l6.49-3.16a54.82,54.82,0,0,1,10.57-4.2,17.69,17.69,0,0,1,4.13-.59c.23,0,.87,0,1.37,0l1.58,0,3.06.12c2,.13,3.87.32,5.75.62s3.89.74,6.42,1.27,5.41,1,8.22,1.34,5.57.46,8.27.57l4,0,3.73,0c2.51,0,5-.11,7.61-.24s5.16-.33,7.58-.55l6.8-.56c4.35-.29,8.69-.35,13.43-.36s9.85-.11,14.81-.35,9.35-.51,13.91-.59l14.23-.16c4.95-.08,10.29-.42,14.93-.79s8.84-.54,13.42-.6,9.07,0,13.35.2c2.15.12,4.25.29,6.52.52s4.8.5,7.4.69c5.18.4,10.45.47,15.19.47a104.23,104.23,0,0,1,12.67.7c4,.51,9.62,1.43,14.95,1.71s10.37.23,15.26.14,10.16-.39,14.87-.75,8.94-.56,13.54-.63,9.33-.09,13.95-.07c9.14.08,19.1.33,28.66.2,4.87-.05,9.87-.22,14.88-.55s9.43-.75,13.93-.93,9.22-.29,13.59-.25a123.74,123.74,0,0,1,13.14.8,133.87,133.87,0,0,0,15.3.86c5.12,0,9.8-.15,14.72-.33,10-.43,18.86-1.14,28.28-1.34a10.46,10.46,0,0,0,.05-20.92h-.05c-4.81-.13-9.69-.23-14.58-.19s-9.51.18-14.11.14-9.4-.09-13.78-.28-8.48-.6-13.1-1.22a148.37,148.37,0,0,0-15.26-1.36c-5.12-.18-9.89-.21-14.9-.15s-10.1.38-14.53.55-9,.17-13.61.13c-9.44,0-18.47-.36-28.33-.58-4.88-.08-9.58-.14-14.55-.12s-10.1.19-14.93.5-9,.48-13.59.51-9.08,0-13.23-.27-8-.89-13.35-1.61a130.46,130.46,0,0,0-15.76-.95c-4.76,0-9-.11-13.29-.45-2.14-.17-4.33-.41-6.78-.66s-5.09-.49-7.68-.63c-5.2-.3-10.23-.34-15.14-.29s-10.16.24-15,.61-9,.61-13.52.67l-14.26.11c-4.94.07-10.06.36-14.57.56s-9,.27-13.68.27-9.92,0-15.05.37c-2.57.16-5.1.38-7.41.58s-4.45.35-6.63.46-4.39.16-6.63.19l-3.39,0-3.17,0c-2-.09-4.06-.18-5.94-.43s-3.7-.53-5.83-1-4.74-1-7.55-1.5-5.65-.76-8.41-.94l-4.06-.18-2,0c-.68,0-1.23,0-2.19,0a44.53,44.53,0,0,0-10,1.32,80,80,0,0,0-15.95,6.07l-6.33,3.06c-2,.95-3.61,1.64-5.78,2.5-4.18,1.67-8.83,3.36-13.81,5.63a63.82,63.82,0,0,0-15.32,9.46,57.12,57.12,0,0,0-11.78,14.38,113.9,113.9,0,0,0-7,14.49l-2.74,6.64c-1,2.46-2.05,5.28-2.86,8a88.61,88.61,0,0,0-3.26,16.46c-.29,2.72-.47,5.41-.56,8.06s-.09,5.34-.09,7.61l0,14.2-.09,28.34-.34,14.17v1a12.63,12.63,0,0,0-.11,12.13V1735c0,2.11-.13,4.12-.31,6s-.45,3.72-.85,5.86-.94,4.79-1.34,7.6-.63,5.64-.76,8.35c-.23,5.6-.11,10.13-.12,14.95l.1,14.28,0,14.1c0,4.61-.13,9-.41,13.46s-.62,9.9-.68,14.83c0,2.54-.06,4.85,0,7.51s.15,5.32.36,8.08.63,5.65,1.09,8.25.89,4.73,1.17,6.65a82.58,82.58,0,0,1,.74,12.33c0,4.9.17,10.07.54,15.1s.69,9.09.79,13.61.11,9.12,0,13.45-.57,8.45-1,13.73-.46,10.4-.45,15.18a125.57,125.57,0,0,1-.58,12.92c-.46,4.24-1.12,9.92-1.24,15.06-.09,2.61-.11,5.09-.1,7.67s.1,5.36.37,8.2c.18,2,.48,4.12.83,6.16-1.64,9.72-11.38,13.5-20.64,15.57-16.06.5-30.54,4.2-42,10.87A93.47,93.47,0,0,0,359,2058.43c-7.23,12.45-10.9,27.76-10.9,45.5a120.28,120.28,0,0,1-.92,16.08,144.29,144.29,0,0,0-1.09,19.06c0,9.19.29,13.86.57,18.38.27,4.31.52,8.38.52,16.76,0,9.2.3,13.87.59,18.4.28,4.3.54,8.36.54,16.72a90.26,90.26,0,0,1-1.16,15.65,116.28,116.28,0,0,0-1.44,19.47c0,9.16.27,13.81.53,18.31.25,4.32.49,8.4.49,16.8s-.26,12.43-.53,16.73c-.28,4.52-.58,9.19-.58,18.38a147.41,147.41,0,0,0,1.06,19,123.56,123.56,0,0,1,.9,16.1c0,17.06,7.22,30.91,14.62,43.64,6.26,10.77,15.45,24.3,31.06,33.38,12.27,7.13,26.41,10.45,44.49,10.45a63.59,63.59,0,0,1,16.45,1.84,88.68,88.68,0,0,0,22.15,2.47l38.6,0a164.75,164.75,0,0,0,20.7-1.13,140.59,140.59,0,0,1,17.87-1c10,0,15.09-.28,20-.55s9.29-.51,18.58-.51,13.7.29,18.44.6c4.95.32,10.06.65,20.13.65,9.76,0,14.64-.09,19.52-.17s9.53-.17,19.06-.17c10.05,0,15.16-.32,20.11-.63,4.75-.3,9.24-.58,18.47-.58,18.6,0,32.91-3.28,45-10.33,12.29-7.14,22.64-18.15,31.65-33.66a84.49,84.49,0,0,0,5.66-11.84c5.5-8,8.63-17.21,19.63-19.93,5.57-1.38,11-1.95,16.41-2.88,3.69-.05,7.54-.18,11.34-.54,3.19-.28,6.17-.68,8.77-.94s5.09-.44,7.72-.53c5.13-.18,11-.09,16.56,0l17.24.41c5.89.13,11.88,0,16.93.22,2.61.1,5.07.29,7.63.58l8.68,1.06a161.81,161.81,0,0,0,18.83.72c3.13-.06,6.33-.18,9.6-.48s6.53-.76,9.23-1.15,5-.65,7.57-.8,5.1-.22,7.77-.22,5.21.05,7.62.24a68.76,68.76,0,0,1,7.21.91c2.49.43,5.68,1.09,9,1.52a98.19,98.19,0,0,0,9.91.79c1.62.07,3.17.06,4.76.09l4.58,0c3.06,0,6.23-.19,9.4-.43s6.25-.61,8.89-.87,5.16-.45,7.79-.55,5.28-.13,8.08-.13H1060l17.25,0c5.8,0,11.35.06,17.63-.07,6.11-.1,13-.86,18-1.35,2.6-.23,5.16-.36,7.81-.44s5.54-.11,7.91,0a56.57,56.57,0,0,1,7,.53,65.85,65.85,0,0,1,7.1,1.52,83.8,83.8,0,0,0,10,2,85.28,85.28,0,0,0,10.16.69l34.68.21c5.71,0,11.74,0,17.82-.22l8.85-.47c2.78-.16,5.44-.27,8.17-.34l17.27-.19c3-.08,6.12-.22,9.07-.4s5.65-.35,8.35-.45c5.36-.21,11-.23,16.48-.15s10.45.43,16.57.87,12.38.46,18.09.46,11,.11,16.72.35,11.94.38,17.77.38a173.51,173.51,0,0,0,18.62-.78c6.31-.71,10.78-1.24,16.19-1.35s11-.09,16.33.12c2.69.11,5.38.28,8.33.47s6.06.33,9.09.41c6.11.15,11.92.11,17.78,0l17.34-.4,8.44-.1,4.31,0c1.56,0,3.11,0,4.71-.09,3.17-.11,6.47-.33,9.76-.74s6.32-.95,8.83-1.31,4.86-.61,7.4-.74,5.17-.19,7.77-.16,5.1.13,7.5.33,4.62.56,7.38,1.07,6.16,1.12,9.5,1.46,6.63.5,9.8.56c12,.15,23.65-.35,34.81-.42s23.35-.17,34.52-.32l8.54,0c3,0,6.2,0,9.43-.27s6.64-.58,9.76-1.08,5.68-1,8.08-1.24a116.46,116.46,0,0,1,15.5-.59c5.58,0,10.49.34,16.49.8,3,.21,6.12.36,9.16.44s5.91.11,9.14.06a81.08,81.08,0,0,0,20.24-3c3.2-.88,6.3-1.91,9.28-3s6-2.38,8.45-3.41a169.76,169.76,0,0,0,17-7.76,66.65,66.65,0,0,0,8.91-5.83,49.54,49.54,0,0,0,4.26-3.7c1.39-1.33,2.52-2.57,3.7-3.91a81.88,81.88,0,0,0,11.16-16.79,160.49,160.49,0,0,0,7.42-17.2,108,108,0,0,0,5.19-18.7,77.72,77.72,0,0,0,1.1-10.12c0-.86.06-1.72.06-2.58V2260q0-2,0-3.87c.08-2.55.22-4.77.56-7.57s.68-6.37.75-9.57.07-6.19-.12-9.66A55.71,55.71,0,0,0,1793.54,2218.7ZM739.73,2405.12c-8,4.63-18.11,6.79-31.9,6.79-10.05,0-15.16.32-20.11.63-4.75.3-9.24.58-18.47.58-9.76,0-14.64.09-19.52.17s-9.53.17-19.06.17c-9.22,0-13.7-.29-18.45-.6-4.95-.32-10.06-.65-20.13-.65s-15.09.28-20,.55-9.29.51-18.58.51a164.74,164.74,0,0,0-20.7,1.13,140.61,140.61,0,0,1-17.87,1l-38.6,0a63.58,63.58,0,0,1-16.45-1.84,88.69,88.69,0,0,0-22.15-2.47c-13.28,0-23.24-2.2-31.35-6.91s-14.7-12-21.59-23.9c-6.06-10.43-11.08-19.93-11.08-30.5a147.41,147.41,0,0,0-1.06-19,123.56,123.56,0,0,1-.9-16.1c0-8.36.26-12.43.53-16.73.28-4.52.58-9.19.58-18.38s-.27-13.81-.53-18.31c-.25-4.32-.49-8.4-.49-16.8a90.26,90.26,0,0,1,1.16-15.65,116.28,116.28,0,0,0,1.44-19.47c0-9.2-.3-13.88-.59-18.4-.28-4.3-.54-8.36-.54-16.72,0-9.19-.29-13.86-.57-18.38-.27-4.31-.52-8.38-.52-16.76a120.28,120.28,0,0,1,.92-16.08,144.29,144.29,0,0,0,1.09-19.06c0-13.07,2.48-24,7.36-32.36a66.94,66.94,0,0,1,23.6-24.1c8.37-4.86,19.63-7.43,32.55-7.43a144.05,144.05,0,0,0,20.92-1.32,120.37,120.37,0,0,1,17.66-1.11,54.41,54.41,0,0,1,16.07,2,79.74,79.74,0,0,0,22.51,2.86c10.06,0,15.18-.33,20.13-.65,4.74-.31,9.22-.6,18.44-.6,9.54,0,14.31.08,19.08.15s9.75.16,19.5.16a101.84,101.84,0,0,0,21.72-2.05,76.26,76.26,0,0,1,16.86-1.6,79.71,79.71,0,0,1,17,1.55,105.45,105.45,0,0,0,21.64,2,136.16,136.16,0,0,0,21.06-1.43,110.93,110.93,0,0,1,17.54-1.19c11.35,0,22.22,5.42,31.35,10.73,8.87,5.15,16.18,12.82,22.36,23.45l1.33,2.27c5.51,9.43,11.21,19.19,11.21,28.68a52.84,52.84,0,0,1-1.72,14.56,78.08,78.08,0,0,0-2.42,20.56,108.66,108.66,0,0,0,1.56,19.61,82.92,82.92,0,0,1,1.24,15.49c0,9,.17,13.6.33,18s.31,8.54.31,17.08a83.49,83.49,0,0,1-1.23,15.52,109.23,109.23,0,0,0-1.55,19.61c0,9.25.34,13.95.67,18.49.31,4.28.6,8.31.6,16.62s-.27,12.41-.55,16.71c-.3,4.53-.61,9.21-.61,18.43,0,8.52-.17,12.65-.35,17s-.37,9.05-.37,18.1a60.36,60.36,0,0,1-8.07,31.16C755.24,2392.41,748,2400.33,739.73,2405.12Z"/><path class="cls-9" d="M2628.1,2393.87l-25.7-.38-6.38-.08c-2,0-4-.09-6-.2-3.91-.18-7.57-.7-12.35-1.16s-9.35-.57-13.75-.61-8.82,0-13.22.07-8.35.19-12.54.17-8.57-.12-13.18,0c-2.29.07-4.65.19-6.85.35l-6.17.39c-2,.1-3.94.14-6,.16s-4.17,0-5.92,0a47.31,47.31,0,0,1-5.16-.42,46,46,0,0,1-5.05-1c-1.92-.47-4.44-1.12-7.07-1.57a64.47,64.47,0,0,0-7.77-.86c-5.17-.24-9.23-.17-13.92-.06-2.29.07-4.62.2-6.78.33s-4.14.25-6.12.32c-4,.15-7.9.12-12.32.09s-8.75,0-13,0l-12.64.07c-4.17,0-8.72,0-13.17.1l-12.78.44c-4,.08-8.45.11-12.11,0a76.31,76.31,0,0,1-11.22-1.24c-2.24-.36-4.82-.71-7.3-.9s-4.92-.31-7.27-.34a136.93,136.93,0,0,0-14.2.45c-2.43.22-4.78.53-6.74.76s-3.73.4-5.61.5-3.77.16-5.76.16l-3.26,0-3.54.07h-.15l-3-.64c-2.1-.44-4.38-.5-4.91-2.73-.33-1.38.33-3,1.29-4.5,1.86-1.41,3.7-2.87,5.47-4.42,1-.85,1.92-1.7,2.84-2.58l1.39-1.33,1.25-1.22a45.82,45.82,0,0,1,8.14-6.23c3.18-2,6.79-3.86,10.69-5.84a139.25,139.25,0,0,0,12.85-7.09c2.24-1.43,4.41-3,6.12-4.29s3.11-2.23,4.65-3.19,3.17-1.88,4.94-2.8l5.66-2.89c3.85-1.93,7.54-3.64,11.77-5.62s8.28-4,12.37-6.14,8.53-4.59,12.45-7,7-4.19,10.75-6.17l6-3.14c2.1-1.12,4.24-2.32,6.35-3.58l2.49-1.54c11.61-4.28,26.57-8.53,28.83,3,.86,4.42-.73,9.59-.6,14.08a34.31,34.31,0,0,0,.47,4.61c-.15.8-.29,1.6-.45,2.39-1.38,7-3,14.19-4.68,20.84l-.07.27a10.45,10.45,0,0,0,20.07,5.77c2.41-7.48,4.4-14.58,6.31-21.91s3.63-14.62,5.19-22c1.07-5,2-10.08,2.93-15.15a60.37,60.37,0,0,1,20.17-25.5c4.86-3.52,9.94-6.56,15-9.65a110.32,110.32,0,0,0,12.52-6.66c2.22-1.37,4.46-2.95,6.29-4.28s3.25-2.35,4.78-3.32c3.12-2,6.18-3.39,11.22-6.29a88.81,88.81,0,0,0,23.72-20.44c5.92-7.32,12.13-15.61,16.26-26.21a60.74,60.74,0,0,0,3.8-16.6,92,92,0,0,0,0-15.61c-.39-5-1-9.72-1.75-14l-2.07-13.21-2.07-13.21c-.63-4.08-1-8.14-1.44-12.54s-.81-8.92-1.37-13.59c-.29-2.37-.59-4.65-1-7.19-.44-2.74-1-5.3-1.67-7.73-1.28-4.87-2.71-9.19-3.89-13.19-.6-2-1.12-3.9-1.55-5.73-.23-.92-.41-1.8-.58-2.68l-.24-1.3-.23-1.45c-1.21-7.82-1.62-16.72-3-26.4a137.77,137.77,0,0,0-2.94-14.39l-3.44-12.93a88.49,88.49,0,0,1-2.34-11.17c-.39-3.47-.45-7.48-.53-12.06a95.42,95.42,0,0,0-1.24-15.41,80.75,80.75,0,0,0-4.62-15.25c-1.78-4.48-3.58-8.49-4.89-12.05a48.71,48.71,0,0,1-1.6-5c-.46-1.83-.92-3.88-1.34-5.89-1.72-8.11-2.89-17.34-5.9-27.19-2.71-9-5.91-17.71-9.26-26.15l-4.89-12.36c-1.66-4.2-3.36-8.56-5.69-13.3a56.16,56.16,0,0,0-4.42-7.53l-1.53-2c-.57-.67-1.23-1.44-1.75-2-1-1-1.94-2-2.92-2.91a109.25,109.25,0,0,0-11.83-9.46c-2-1.38-3.89-2.69-5.8-4l-5.8-3.81a105.45,105.45,0,0,0-13.49-7l-3.74-1.65a7.93,7.93,0,0,0-3-1.48c-.43-.12-.84-.27-1.26-.41l-2.67-1.22a11,11,0,0,1-5.63-8.74c-.41-4.16,1.41-7.93,3.58-11.43,11.91-12.26,20.26-29.85,18.16-54.15-3.75-43.5-22.68-57-42.72-71.22-12.76-9.08-26-18.46-39.09-37.21-17.69-25.25-20-46.27-22.93-72.88-2.58-23.49-5.51-50.11-20.16-83.87-18.56-42.78-76-96.19-146-110.92-37.71-7.94-93.21-7.5-145.11,38.78-19.15,1.94-101.13,15.43-139.36,105.78-48.59,114.86,2.73,182.64,36.7,227.5,10.95,14.46,20.41,27,22.47,36.19,1.24,5.55-.35,16.33-2,27.74-3.78,25.63-9,60.73,11.27,85.37a61.79,61.79,0,0,0,14.92,13.06,8.56,8.56,0,0,0,.74.62c6.5,4.44,14.88,8.61,20.07,14.59,3.28,3.78,4.5,8.47,4.91,13.33l-1.12,4.1-3.84,14.23-7.41,29.46c-2.24,8.79-5.84,18.37-8.18,29.64a155,155,0,0,0-2,16.24c-.22,2.46-.45,4.79-.73,7-.14,1.1-.29,2.16-.47,3.18s-.38,2.11-.55,2.77c-.72,3.05-2.46,6.92-4.6,11.54-1.06,2.32-2.22,4.85-3.31,7.7-.54,1.42-1.07,2.93-1.53,4.55-.23.82-.47,1.6-.65,2.48s-.4,1.8-.5,2.39c-2,10.81-2.54,20.93-4.05,29.79l-4.24,24.75a31.63,31.63,0,0,1-2.92,6.09c-4.19,6.49-16.23,3.51-22.85,3.31a8.43,8.43,0,0,0-1.09.07L1867,2085.08l-35-10.75-17.47-5.37-8.74-2.69-4.33-1.34-4.08-1.36a268.86,268.86,0,0,1-32.24-13.36c-5.11-2.53-10.58-5.46-16-8.26l-16.28-8.44c-21.77-11.21-43.7-22.29-66.29-32.48-11.3-5.11-22.77-10-34.7-14.27-6-2.16-12-4.18-18.37-5.94a107.06,107.06,0,0,0-20.43-3.87,45,45,0,0,0-12.82.7,27.36,27.36,0,0,0-8.15,3.15,21.66,21.66,0,0,0-7.71,7.78,22.74,22.74,0,0,0-2.94,10,24.54,24.54,0,0,0,1.24,9.19,36.82,36.82,0,0,0,6.94,11.94,87.09,87.09,0,0,0,15.92,14.23,186,186,0,0,0,16.46,10.44c7.26,4.1,14.56,7.87,21.91,11.42-1.89,14.48.6,26.51,3.05,35.42,4,14.41,9.67,25,18,33.38a88.54,88.54,0,0,0,31.22,20.56c10.89,4.08,22,4.33,32.68,4.56l3.06.07c2.5.06,5,.23,7.6.4,8.73.57,18.63,1.22,28.48-1.71l1.87-.56c5-1.51,11.29-3.41,13.83-2.11l.41.2a89.8,89.8,0,0,1,12.75,7.05,111.72,111.72,0,0,0,16.35,8.94c7.35,3.35,10.88,5.07,14.61,6.89s7.58,3.69,15.25,7.18a86.24,86.24,0,0,0,18.07,6.19,61.24,61.24,0,0,1,13.3,4.55c7.34,3.34,10.86,5.07,14.59,6.89s7.58,3.71,15.26,7.21,11.39,5.13,15.2,6.8,7.49,3.29,14.94,6.68a72.28,72.28,0,0,1,12.54,7,97.89,97.89,0,0,0,16.34,9.18,96,96,0,0,0,17.72,6.3,70.77,70.77,0,0,1,13.52,4.8,68.42,68.42,0,0,1,12.55,7.14A96.28,96.28,0,0,0,2003,2258c7.73,3.91,19.31,8.35,32.06,8.35.88,0,1.77,0,2.66-.06,11.24-.56,23.34-4.65,34.1-11.51,11.84-7.56,20.39-16.25,25.39-25.82,2.72-5.21,5.4-10.56,8.12-16.06,2-3.84,4.23-8.71,8.31-10.57,4.41-2,6.21.85,8.39,4.2,1.18,1.82,2.33,3.52,3.56,5.08l15.53,57.56a89.54,89.54,0,0,1-3.83,27.34c-.32.49-.66.95-1,1.45a61.26,61.26,0,0,0-6.83,15.36,68,68,0,0,0-2.91,16.22,54.7,54.7,0,0,0,1.8,17.42,46.94,46.94,0,0,0,8.4,16.31,94.78,94.78,0,0,0,10.58,11.28l.73.67a19.18,19.18,0,0,1,2.12,5.58c.8,4.83-2.81,7.24-6.87,8.83-1.42.17-2.83.36-4.15.59a79,79,0,0,1-11.25,1.47,74,74,0,0,1-10.76-.2,38.21,38.21,0,0,1-4.85-.86c-1.78-.41-4.21-1.06-6.87-1.55a77.79,77.79,0,0,0-15.28-1.07c-2.34,0-4.78.13-7.26.33s-5.07.53-7.34.9a76.16,76.16,0,0,1-11.24,1.29,106.16,106.16,0,0,1-11.33-.13c-1.8-.13-3.49-.34-5.5-.64s-4.45-.68-6.94-.92a125.35,125.35,0,0,0-14.17-.47l-13,.17c-8.52.21-16.81.13-25.81.36l-12.82.47-12.72.19c-4.41.06-9.17.3-13.4.6s-8,.44-12.2.48-8.13,0-12-.2l-6.12-.46c-2.22-.18-4.61-.34-6.93-.42-4.67-.18-9.17-.09-13.39,0l-12.89.19-12.78.17a125.89,125.89,0,0,0-14,.76c-4.93.61-8.39,1.25-12.17,1.47-1.89.13-3.86.19-5.86.22l-6.24,0c-4.17,0-8.16-.1-12.6-.21s-8.87-.09-13.22,0a10.45,10.45,0,0,0,0,20.89h0c4.21.06,8.34.17,12.46.38s8.68.48,13.07.58l6.6.11c2.28,0,4.6,0,7-.12s4.83-.31,7.14-.57l6.21-.72a104.08,104.08,0,0,1,11.64-.36l12.91.1,12.79.08c4.33,0,8.4.05,12.29.29,2,.11,3.83.27,5.88.48s4.34.46,6.68.63c4.7.35,9.28.41,13.7.41s9.08-.11,13.47-.36,8.11-.39,12.26-.4,8.57,0,13,0l12.85-.31,25.56,0h12.71a101.16,101.16,0,0,1,11.48.49c1.77.2,3.55.49,5.78.85s4.77.72,7.24.93a123.16,123.16,0,0,0,14.34.35c2.4-.08,4.9-.24,7.41-.53s4.91-.69,6.86-1,3.61-.51,5.41-.65,3.63-.21,5.57-.22a52.87,52.87,0,0,1,10.3.7c1.55.29,3.27.74,5.65,1.32a64.1,64.1,0,0,0,7.78,1.41,98,98,0,0,0,14.89.4c2.45-.12,5-.32,7.52-.66s4.84-.77,6.7-1.07,3.51-.5,5.27-.64,3.61-.19,5.55-.19a92.9,92.9,0,0,1,11.28.52l6.18.82c2.35.31,4.88.55,7.3.69,4.89.25,9.31.28,14.11.1s10.06-.86,13.7-1.3a98.65,98.65,0,0,1,11.35-.54,67.39,67.39,0,0,1,10.75.77,113.88,113.88,0,0,0,14,1.92c2.48.16,4.92.2,7.21.21l6.5,0,12.93-.2,12.75-.11c2.31,0,4.7-.09,7.13-.24s5-.42,7.3-.74a99.35,99.35,0,0,1,11.55-1.23l2.88-.07,3.16,0c2.29,0,4.67-.1,7.07-.24s4.91-.39,7.18-.68,4.18-.55,6-.72a112,112,0,0,1,11.46-.4,70.41,70.41,0,0,1,11,.88c2,.3,4.41.7,6.91,1s5,.43,7.39.5c4.9.12,9,0,13.58-.05l12.89-.51c4.1-.13,8.12-.14,12.51-.16s8.75-.1,13-.22,8.4-.2,12.64-.24,8.81-.07,13.36-.31c2.3-.12,4.6-.29,6.7-.45s4-.3,6-.39c3.86-.17,8.37-.27,11.76-.15a40.29,40.29,0,0,1,5,.46c1.6.24,3.24.62,5.48,1.15a70.19,70.19,0,0,0,7.56,1.37,71.21,71.21,0,0,0,7.64.51c2.53,0,4.63,0,6.92-.05s4.56-.14,6.87-.29l6.64-.52c2.06-.17,4-.31,6-.39,4-.19,8-.18,12.5-.28s9-.29,13.13-.51,8.24-.32,12.46-.38,8.06,0,11.91.22,8.6.8,13.25.89c2.32.07,4.59.07,6.84.05l6.46-.08,25.67-.47h.06a10.45,10.45,0,0,0-.06-20.89Zm-464.23-225.69c-1,2.31-3.29,3.51-5.8,4.21h-17.15c-2.51-1-4.78-2.3-5.83-4-2.15-3.37,1.13-11.89,2.1-15.57a8,8,0,0,0,.19-3.39,8.56,8.56,0,0,0,1.3-1.53c1.81-2.75,4.56-9.39,7.86-10.55,3.68-1.29,7.1,3.15,8.87,5.72a8.7,8.7,0,0,0,.93,1.11q3.23,6.48,6.36,12.85C2164.31,2160.71,2165.44,2164.71,2163.87,2168.18Zm47.3,87.46c-1.3.09-2.59.23-3.88.37-2.57.31-5.13.72-7.64,1.23-1.18.24-2.31.56-3.47.84-3.06.24-6.29,1-9.79,1.59-10.48,1.89-19-2.93-23.68-10.93l-8.53-31.61c0-2-.08-4.06-.24-6.2-.28-3.61-1.26-8.5,2.22-10.79,2.79-1.84,7.71-1.41,11.23-1.63h63.38c6,1.31,11.58,3.58,16,8.23a34.89,34.89,0,0,1,2.73,3.3l7.08,25.57c.37,4.92-.09,9.83-2.79,13.8-4.84,7.15-14.63,5.86-22.11,5.3a7.73,7.73,0,0,0-2.69.27c-5,0-9.79.25-14.11.44Zm360-78.6a33.07,33.07,0,0,1-2.12,9.27c-2.31,6-6.7,12.31-12,18.71a61.35,61.35,0,0,1-16.45,14.13c-2.63,1.56-7.67,3.93-12,6.74-2.22,1.4-4.44,3-6.18,4.25s-3.16,2.24-4.71,3.21a90.26,90.26,0,0,1-10,5.27c-3.27,1.43-5.38,1.88-10.86,3.27a73.85,73.85,0,0,0-15,6.06c-4,2.07-8.18,4.29-12.15,6.53s-7.46,4.16-11.32,6.17-7.38,3.8-10.9,5.24c-1.75.73-3.6,1.4-5.87,2.26s-4.67,1.85-6.93,2.88c-4.58,2.11-8.63,4.21-12.86,6.55-2.11,1.17-4.27,2.45-6.29,3.71l-5.48,3.41c-1.7,1-3.43,2-5.25,3l-5.79,3c-2.08,1.1-4.18,2.24-6.29,3.46s-4.2,2.5-6,3.64c-3.61,2.25-6.92,4.11-10.72,6.08s-7.66,3.92-11.47,5.73-8.18,3.83-12.26,5.89l-6.2,3.18c-2.17,1.14-4.4,2.4-6.63,3.79s-4.48,3-6.32,4.34-3.26,2.4-4.77,3.37c-5.76,3.79-14.45,7.32-23.12,12.73a72.57,72.57,0,0,0-12.89,10l-1.13,1.11-1,1c-.68.65-1.38,1.27-2.08,1.9-1.41,1.24-2.89,2.43-4.4,3.57-6.09,4.64-12.73,8.12-20.5,11.61a103.91,103.91,0,0,1-11,4.26q-2.69.85-5.32,1.45c-.88.2-1.75.37-2.61.53s-1.33.21-2.07.25A46,46,0,0,1,2232,2378c-4-.57-8.48-1.46-13.61-2l-6.61-.67c-2-.23-4.06-.49-6-.81a88.32,88.32,0,0,1-11.27-2.49c-1.8-.54-3.47-1.12-5.25-1.81s-3.56-1.45-5.26-2.26a67.06,67.06,0,0,1-9.64-5.53q-2.25-1.56-4.35-3.31c-.71-.59-1.36-1.17-2.08-1.81l-2.34-2.15a69.63,69.63,0,0,1-7.69-8.07,20.43,20.43,0,0,1-3.85-7.15,28.38,28.38,0,0,1-.9-9,41.52,41.52,0,0,1,1.8-9.93,34,34,0,0,1,3.88-8.93,51.11,51.11,0,0,1,6.59-8.22q2-2,4.19-4.06a52.07,52.07,0,0,1,4.1-3.4c5.68-4.26,12.5-7.48,20.11-10.14a85.49,85.49,0,0,1,11.1-3.12q2.75-.56,5.5-.9c.92-.1,1.83-.2,2.75-.27l2.93-.17c9.12-.48,16.79-.85,23.48.47L2252,2285a89,89,0,0,1,11.1,3.23c.82.33,1.65.65,2.43,1,.4.17.78.35,1.16.53l1.45.68a60.31,60.31,0,0,0,7.24,2.94,13,13,0,0,0,10.59,2.32,44.53,44.53,0,0,0,8,.24,45.7,45.7,0,0,0,17.83-4.83c1.34-.7,2.68-1.4,3.91-2.2l3-1.9c1.66-1.06,3.29-2,4.88-2.9s3.15-1.59,5.11-2.48,4.38-2,6.71-3.19a113.13,113.13,0,0,0,12.81-8c2-1.44,4.13-3.07,6.15-4.8s3.9-3.56,5.39-5,2.73-2.56,4.16-3.7,2.92-2.26,4.57-3.37,3.15-2.08,4.66-3a35.74,35.74,0,0,1,4.38-2.09c1.49-.6,3.41-1.17,5.94-2.06a59.17,59.17,0,0,0,7.72-3.35A77.28,77.28,0,0,0,2398,2239c2-1.34,3.94-2.67,5.94-4.14s4-3,5.84-4.62l4.95-4.24a119.76,119.76,0,0,1,9.81-7.23c3.76-2.56,7.69-5.39,11.31-8.19s6.71-5.11,10.26-7.57l5.51-3.79c1.91-1.33,3.84-2.73,5.76-4.17s3.77-3,5.45-4.34,3.25-2.62,4.9-3.86c3.26-2.48,6.77-4.85,10.54-7.48s7.45-5.29,11-7.86,7-5.1,10.64-7.62a10.43,10.43,0,0,0-8-18.79,22.59,22.59,0,0,1-12.18-19.51,7.63,7.63,0,0,0-1.33-4.25c-1.3-5.63-2.78-11.18-4.32-16.62-3.34-11.61-8.58-21.29-12-30-1.2-3.08-2.48-6-3.78-8.94a69.15,69.15,0,0,1-.1-32.54c9.25-13.2,23.82-22.89,41.41-27a71.08,71.08,0,0,1,27.5-1.1c8.38,3.57,15.1,8.42,19.94,17.62.59,1.11,1.13,2.25,1.7,3.38.76,3.21,1.44,6.35,1.85,9.43,1.17,7.91,1.55,16.79,3,26.53l.29,1.83.36,2c.26,1.3.52,2.59.82,3.83.59,2.49,1.25,4.88,1.91,7.13,1.33,4.53,2.67,8.64,3.63,12.37.49,1.87.88,3.64,1.14,5.28.3,1.84.58,4,.82,6,.48,4.14.86,8.43,1.27,12.91s.87,9.22,1.58,13.92l2,13.11,2,13.11c.73,4.48,1.26,8.52,1.56,12.42A65.09,65.09,0,0,1,2571.15,2177Zm-85.41-334.3c1.78,1.19,3.52,2.38,5.19,3.56a83.67,83.67,0,0,1,9,7.15c.63.6,1.23,1.2,1.79,1.79l.45.51.48.64a30.48,30.48,0,0,1,2.28,4c3.13,6.47,6.31,15.54,9.62,23.62s6.07,16,8.48,24.07c2.22,7.15,3.36,15.6,5.25,24.87.48,2.33,1,4.62,1.6,7.1a74.92,74.92,0,0,0,2.42,7.69c1.76,4.76,3.61,8.87,5.09,12.64a57,57,0,0,1,3,9.7c-1.24,4.32-3.19,8.34-6.92,10.86a20.38,20.38,0,0,1-7.6,3,93.34,93.34,0,0,0-30.91,2.06,92.29,92.29,0,0,0-43.84,23.63c-3,2-6.06,3-9.6.45a15.1,15.1,0,0,1-2.94-2.89,122.25,122.25,0,0,1-5.58-18.61,149.52,149.52,0,0,1-2.93-28.88c.06-8.85,2.3-18.67,4.39-29l0-.08a9.14,9.14,0,0,0-17.82-4.06c-2.53,9.93-5.72,20.33-6.54,32.3a157.51,157.51,0,0,0,1.67,33.17c1.72,11.77,5.67,22.23,8.43,31.61a120.42,120.42,0,0,1,2.6,13.78,86.45,86.45,0,0,0,4.21,17.47c4,10.44,8.44,19.67,11.54,28.63,3.9,10.76,8.13,19.73,10.3,28.2a276.05,276.05,0,0,1,6,27.81c-.38,18-10.42,32.37-23.94,45.22-3.2,2.14-6.45,4.44-9.37,6.58-3.48,2.53-6.82,4.8-10.46,7.15a144.13,144.13,0,0,0-11.84,8.27l-5.29,4.29c-1.56,1.26-3.07,2.37-4.69,3.53s-3.32,2.3-5,3.42a52.36,52.36,0,0,1-4.6,2.67,33.49,33.49,0,0,1-4.51,1.89c-1.66.57-4,1.25-6.66,2.25a61.39,61.39,0,0,0-7.68,3.55c-2.34,1.32-4.63,2.72-6.63,4.09s-4.12,2.85-6.19,4.47-4.14,3.46-5.86,5.08-3.05,2.88-4.42,4-2.79,2.23-4.39,3.33a88.15,88.15,0,0,1-9.82,6c-1.61.82-3.23,1.53-5.35,2.46-.76.33-1.6.72-2.42,1.1-5.3,1.83-10.83,2.87-16.34,1.19a19.4,19.4,0,0,1-11.44-9.25L2268.82,2182a13.05,13.05,0,0,0-12.58-9.57h-32.92c-18.91-7.32-31.47-21.8-42.67-38.25l-1.3-2.46c-8.29-15.42-16.32-30.33-22-45.76s-9.15-31.27-9.33-47.53,2.44-32.68,7-48.85l.08-.3a9.14,9.14,0,0,0-17.45-5.42q-2.93,8.46-5.26,17.22a23,23,0,0,1-6.37,7.25c-5.63,3.9-11.7,1.29-17.41-1.08a7,7,0,0,0-3.67-.54,91.7,91.7,0,0,0-12.48-4,85.94,85.94,0,0,0-37.69-.92c-2.57-.43-4.94-1.4-6.26-3.64a10.49,10.49,0,0,1-1.25-4.2c.62-2.26,1.32-4.6,2-6.93,1.43-4.66,3-9.56,4.44-14.87l7.41-28.69,4.08-14.71a108.82,108.82,0,0,1,4-12.53c1.4-4.19,9-10.74,16.54-17.79,7.56-7.22,14.08-13.83,21.11-19.08,3.11-2.34,6.07-4.68,8.93-6.94,4.09-1.89,7.93-4.23,12.22-5.83,7.16-2.67,12.37,1.2,17.3,5.81l.93,1.3c1.49,2.11,2.9,4.26,4.29,6.39,4.9,7.47,10,15.2,17.83,20.88,8.47,6.12,17.85,8.94,26.93,11.67,1.84.55,3.67,1.1,5.49,1.68,2.45.78,4.9,1.67,7.36,2.55,7.73,2.78,16.49,5.93,26.05,6.4.91,0,1.81.07,2.71.07,7.64,0,15-1.51,22.06-3,3.14-.65,6.1-1.26,9.05-1.74,3.2-.52,6.6-.83,10.2-1.15,7.58-.69,15.43-1.4,23.29-4.18,9.45-3.35,18.15-8.25,26.55-13l3.73-2.1c9.38-5.24,17.5-11.88,25.36-18.3l1.87-1.53a173.65,173.65,0,0,0,24.12-23.67l1.93-2.32c6.53-7.85,13.28-16,18.06-25.61,1.56-3.14,3-6.38,4.3-9.66,1.86-3.23,4.2-6.18,7.58-7.35a12.19,12.19,0,0,1,4.52-.53l3.82,1.45c4,1.57,8.46,3.06,11.28,4.54,3.26,1.61,6.73,3.73,10.55,6.07,1.91,1.17,3.92,2.39,6.06,3.61s4.55,2.5,6.7,3.52c4.38,2.11,8.59,3.89,12.43,5.63a80.38,80.38,0,0,1,10.12,5.25Zm-317.8,23.8c-9.74-11.82-1.25-20.58,6.74-29.72,2.24-1.39,4.45-2.7,6.61-3.89,4-2.22,8.22-4.29,12.62-6.35l6.81-3.17,3.62-1.74,1.9-1,.72-.39.9-.52a17.07,17.07,0,0,0,1.71-1.13,27.61,27.61,0,0,0,8.9-11.22,34.23,34.23,0,0,0,2.62-18.16c-.05-.52-.17-1.08-.26-1.61s-.22-1.17-.28-1.4l-.11-.45c0-10.08-2.67-20-1.4-30.31,1.4-11.43,5.76-22.1,10.82-32.4,1.57-2.86,3.06-5.75,4.43-8.7l1.91-3.64a8.18,8.18,0,0,0,.87-2.76c1.38-3.38,2.64-6.8,3.75-10.3.63-2,1.19-4,1.72-6s1-4,1.44-6.51a9.13,9.13,0,0,0-17.81-4l-.14.52c-.33,1.23-.89,3.12-1.43,4.72s-1.16,3.33-1.82,5c-1.28,3.32-2.72,6.61-4.3,9.82a122.79,122.79,0,0,1-11.05,18.27,108.58,108.58,0,0,1-30.38,28.71l-2.22,1.37c-.73.44-1.36.74-2,1.12a37.42,37.42,0,0,1-4.13,1.9,41.22,41.22,0,0,1-8.7,2.54,44.61,44.61,0,0,1-18.08-.45,44,44,0,0,1-8.61-2.9c-3.09-1.41-6.41-3.05-9.53-4.76a173,173,0,0,1-18.25-11.45c-23.62-16.59-43-39-58.15-64a281.19,281.19,0,0,1-13.61-25.65c-3.39-8.48-5.82-17-.9-25.81a36.41,36.41,0,0,1,7.54-9.11c1.32-.64,2.63-1.28,3.94-1.95,4.3-2.06,8.38-4.58,12.58-6.86,4-2.56,8.22-4.91,12.13-7.68a223.86,223.86,0,0,0,22.84-17.47,218.68,218.68,0,0,0,23.29-23.55c6.48-6.81,14.33-15.75,24.36-15.91,4.37-.07,7.43,2.28,10.26,5.18.77,1.73,1.56,3.47,2.39,5.21q1.13,2.37,2.39,4.78l1.33,2.45c.52.9.86,1.54,1.68,2.83h0l.13.2a12.81,12.81,0,0,0,18.88,2.91c8.11-6.68,17.62-11,27.24-11.61s19.21,2.49,25.65,8.79a26.08,26.08,0,0,1,7.4,24.46c-1.8,9.35-8,18.69-16.13,26.57l0,0a10.4,10.4,0,0,0,8,17.86,7.84,7.84,0,0,0,2.65-.41c6.39-2.17,15.34-4.64,21,.68,2,1.91,2.71,4.67,4.07,7a21.07,21.07,0,0,0,6.19,6.69l1.6,4.3a119,119,0,0,0,5.74,13.54c2.18,4.28,4.49,8.33,6.71,12.2s4.34,7.57,6.15,11.12c.95,1.8,1.72,3.42,2.52,5.24s1.56,3.68,2.3,5.6c3,7.62,5.33,16.09,8.94,25.23,3.44,8.78,7.61,17.12,10.38,24.32.7,1.86,1.15,3.24,1.82,5.43s1.31,4.32,2.13,6.73c1.66,4.76,3.8,10.41,8.35,15.93a35.49,35.49,0,0,0,3.53,3.67c1.07,1,2.17,1.91,3.28,2.79a62.18,62.18,0,0,0,6.93,4.74,65.34,65.34,0,0,0,15.29,6.58c6.06,1.69,11.23,2,15.56,2.38,3,.26,5.74.55,8.22.94,3.7,1.58,7.16,3.49,9.63,6.33,5.36,6.17,3.21,14.88,1,22.25-3.63,6.25-8.53,12.16-13.7,18.37l-2,2.36a152.68,152.68,0,0,1-21.22,20.79l-1.89,1.55c-7.49,6.12-14.56,11.9-22.32,16.23l-3.81,2.14c-7.63,4.3-15.52,8.75-23.27,11.49-5.39,1.9-11.61,2.47-18.2,3.07-3.8.34-7.73.7-11.65,1.34-3.39.55-6.72,1.24-9.94,1.9-7,1.44-13.54,2.78-19.52,2.51-6.45-.32-13-2.69-20-5.19-2.71-1-5.4-1.94-8.09-2.8-1.93-.61-3.88-1.2-5.82-1.79-7.76-2.33-15.09-4.54-20.72-8.6-4-2.88-7.33-7.48-10.7-12.53A8,8,0,0,0,2167.94,1866.55ZM1586.9,2000l0,0C1586.8,1999.74,1586.88,1999.81,1586.9,2000Zm500,191.19c-4.42,9-8.59,17.59-12.81,25.65-2.82,5.4-8.46,10.91-16.3,15.91-6.89,4.4-14.67,7.11-21.34,7.44-6.36.32-14.1-1.67-21.78-5.58l-.39-.19a71.38,71.38,0,0,1-12.31-7.09,93.42,93.42,0,0,0-16.59-9.43,96,96,0,0,0-17.72-6.3,70.85,70.85,0,0,1-13.52-4.8,72.44,72.44,0,0,1-12.53-7,98,98,0,0,0-16.35-9.18c-7.61-3.47-11.43-5.15-15.26-6.83s-7.47-3.28-14.88-6.65-10.87-5.07-14.6-6.9-7.57-3.71-15.24-7.2a86.24,86.24,0,0,0-18.07-6.19,61.2,61.2,0,0,1-13.3-4.55c-7.37-3.35-10.9-5.07-14.64-6.9s-7.57-3.68-15.22-7.17a85.65,85.65,0,0,1-13-7.12,115.48,115.48,0,0,0-15.69-8.69c-11.8-5.89-24-2.2-33,.49l-1.77.53c-5.37,1.59-12.16,1.15-19.35.68-2.9-.19-5.79-.37-8.64-.45l-3.16-.07c-8.92-.2-17.35-.38-24.09-2.9a62.28,62.28,0,0,1-21.88-14.53c-4-4-7.09-9.29-9.56-16.27-.88-7.42,1.22-16.23,8.47-17.62q4,1.51,8,3a10.45,10.45,0,0,0,7.78-19.38l-.23-.1c-10.79-4.71-21.83-9.78-32.45-15.14s-21.18-10.93-31.07-17.06c-4.94-3.06-9.69-6.29-14.12-9.61a63.52,63.52,0,0,1-11.14-10.24c-.29-.35-.54-.69-.77-1,.82,0,1.71,0,2.66.15a91.4,91.4,0,0,1,15.4,3.22c5.4,1.55,10.89,3.43,16.37,5.48,11,4.11,21.94,8.83,32.88,13.71,21.87,9.87,43.55,20.66,65.19,31.68l16.23,8.32c5.43,2.77,10.72,5.59,16.55,8.44a308,308,0,0,0,35.32,14.59l4.6,1.53,4.41,1.37,8.74,2.69,17.49,5.38,35,10.76,139.91,43a13,13,0,0,0,3.17.52,10.41,10.41,0,0,0,14.16-7.56,66.79,66.79,0,0,0,1.34-8.82,46.24,46.24,0,0,0,.07-4.86l-.18-3.85a32,32,0,0,1,.36-5.61c.26-2,.74-4.2,1.18-6.42l6.51-29.17c1.87-8.92,2.78-17.2,4.1-24.8a8.24,8.24,0,0,0,1.44-2.53c6.33-18,17.72-38.28,39.24-39h.1a70.06,70.06,0,0,1,16.89,2c9.27,2.25,19.26,6.75,26.93,13.68,10.37,22.22,9.61,46.39,4.46,70.21-.26,1.12-.53,2.24-.79,3.36l-.51,2.22c-2.2,9-4.94,18-7.88,26.69-2.5,7.18-5,14-7.76,20.57-3.41,7.94-7.3,15.83-11.05,23.45Z"/><path class="cls-9" d="M1549.42,1161.84a46.77,46.77,0,0,0-7.32-14.1,22.3,22.3,0,0,1-3.75-7.23c-1.86-5.46-2.73-8.22-3.6-11-.9-2.91-1.8-5.82-3.78-11.61-2.1-6.15-2.49-13.56-1-18.93.72-2.61,1.86-5.46,3.06-8.52,2.79-7,5.94-14.94,5.94-24.24,0-10.59-2.79-20.43-5.25-29.13-.39-1.35-.78-2.7-1.14-4-2.46-8.94-6.09-20.55-12.48-31.26-4.86-8.19-11.61-14.25-17.58-19.62-1.77-1.59-3.54-3.18-5.25-4.83-8.94-8.58-18.63-14.37-26.94-18.87a117.42,117.42,0,0,0-30.66-11.79c-2.52-.6-5.22-1.44-8.07-2.34-7.23-2.25-15.42-4.8-24.75-4.47-11.1.42-20.91,4.2-29.58,7.5-2.13.84-4.26,1.65-6.39,2.4-2.37.84-4.8,1.62-7.2,2.4-8.7,2.79-18.57,5.94-27.12,12.27-8.31,6.18-13.86,14.43-18.72,21.69-1.68,2.52-3.27,4.89-4.92,7.11s-3.78,4.74-5.94,7.23c-5.58,6.54-11.91,13.92-15.36,23.61a128.48,128.48,0,0,0-6.75,37.26c-.39,10,2,19.29,4.05,27.48.51,1.92,1,3.87,1.44,5.76,2.73,11.76,8,22,12.75,30.72,1.32,2.46,2.55,5.25,3.87,8.25,3,6.93,6.45,14.79,12.69,21.27,8.76,9.09,19.71,16.08,27.18,20.52a127.62,127.62,0,0,0,31.23,13.44c8.58,2.37,17.1,1.74,24.63,1.17,3.18-.24,6.18-.45,9-.45,14.88,0,34.53-5.7,42.27-8.13,7.11-2.25,14-2.91,18.9-1.83a103.91,103.91,0,0,1,10.83,3,130,130,0,0,0,13.05,3.54,35,35,0,0,1,8.91,3.12,58.6,58.6,0,0,0,14.55,5.13,21.84,21.84,0,0,0,4.83.51,25.54,25.54,0,0,0,18.72-8.7C1550,1179.18,1552.18,1169.88,1549.42,1161.84Zm-84.1-125.63-52.67,78.45-.23.34a14.34,14.34,0,0,1-19.9,3.91,14.69,14.69,0,0,1-3.37-3.16l-30-39c-3.83-5-3.66-12.26.93-16.56a12,12,0,0,1,16.82.34l19.73,20.1a3,3,0,0,0,4.52-.27l44.25-57.64c3.89-5.07,11.13-6.77,16.48-3.28A12,12,0,0,1,1465.32,1036.21Zm56.17,127.85.09-.09s0,0,0,.06S1521.55,1164.06,1521.49,1164.06Z"/><path class="cls-9" d="M1797.76,1735.18c0,4.29,0,8.34-.09,12.6s-.3,8.52-.45,12.45c-.39,7.83-.18,15.45-.45,24.36-.12,4.35-.48,8.91-.81,12.81s-.51,7.5-.57,11.37c-.06,7.44-.09,16.92-.78,25.11-.3,4-.51,7.65-.63,11.55s-.12,7.86-.06,11.58.27,7.26.66,11.16.81,8.67.93,13c.18,9-.12,16.68-.06,24.81s-.15,16.47-.33,24.63-.51,16.59-.75,24.51l-.36,12.18c-.15,4.26-.42,8.67-.93,13.08s-1.17,8.37-1.53,12-.66,7.5-.81,11.43v.06a10.48,10.48,0,0,1-20.94-.06c-.15-4.23-.24-8.58,0-13s.63-8.67.81-12.33.18-7.44.09-11.34-.24-8.16-.27-12.24c-.06-8.37,0-16.29-.21-24.36s-.36-16.08-.63-24.24-.18-16.8-.51-24.06c-.21-3.78-.57-7.14-1.05-11.34s-.84-8.88-1-13.2-.15-8.58-.12-12.84.24-8.76.54-12.87c.63-8.07.6-14.88.66-23.73,0-4.26.24-8.76.6-13s.6-7.77.69-11.58c.06-1.68.09-3.45.09-5.25-.84-9.63,2-20.22-5.61-27.36-4.23-4-9.57-6-15.18-7.05h-.15l-3.21.09h-2.94l-5.94-.09c-4-.09-8.1-.33-11.73-.57s-7-.39-10.62-.42c-6.9,0-15.66,0-23.31-.69-7.38-.57-13.89-.63-21.63-.6l-22.59-.15-45.18-.12c-3.54,0-7,0-10.29.27s-6.69.72-11,1.11-8.37.51-12.39.51-8.13-.06-12.42-.45-8.85-1.17-12.18-1.74a69.86,69.86,0,0,0-9.69-1.05c-3.27-.15-7-.18-10.65-.15s-7.14.09-10.86.24c-7.59.36-15.93.24-23.1.12-3.66,0-7.23,0-10.86.09s-7.65.27-11.55.27c-7.92.06-15.3-.3-22.71-.33s-15.21-.12-22.74-.39a10.46,10.46,0,0,1-.06-20.91h.06l22.44-.81,22.47-.66c3.6-.15,7.14-.39,11-.63s7.86-.42,11.73-.51c7.86-.15,14.61-.3,22.05-.87,3.78-.27,7.83-.45,11.7-.54s7.71-.18,11.94-.09a101.09,101.09,0,0,1,12.78,1.11c4.08.63,7,1.08,10.2,1.29s6.6.21,10.14.15,6.84-.27,10.14-.66,7.29-.93,11.52-1.26,8.31-.45,12.27-.45l45.21-.3,22.56-.06c3.72,0,7.65,0,11.64.12s8.16.33,11.88.6c7.35.63,13.68.6,21.81.66,3.93.06,8,.21,12,.48s7.26.48,10.8.63l5.37.12,2.7,0h.15c9.93-3.69,19.35-9.75,22.11-20.52a29.52,29.52,0,0,0,.66-3.48c0-2.16,0-4.32-.12-6.45l-.54-12.21c-.18-4.29-.24-8.52-.24-12.69a48.66,48.66,0,0,0-.9-9.6,69.31,69.31,0,0,0-2.67-9.87c-.57-1.68-1.2-3.36-1.89-5.1l-1.08-2.61c-.33-.75-.6-1.47-1-2.19a54.51,54.51,0,0,0-5-8.4,79,79,0,0,0-6.6-8l-1.89-2-2-2.13c-1.68-1.71-3.15-3.33-4.59-4.92-5.55-6.33-10.14-11.34-14.07-13.29a15.61,15.61,0,0,0-1.56-.72c-.69-.3-1.38-.54-2.1-.81-1.47-.48-3-.93-4.56-1.29a70.3,70.3,0,0,0-10.14-1.56c-3.57-.33-7.26-.45-11-.48s-7.65.06-11.28.3-7.47.72-12,1.08-8.94.45-13.23.48-8.67-.09-13.2-.42-9.12-1-12.69-1.38-7.14-.6-11-.66-7.89-.06-11.76,0-7.8.21-12,.33-8.43.24-12.6.24a211.13,211.13,0,0,0-23.31.81c-4.14.39-8.76.69-13.05.75l-6.45.06-5.91,0c-3.93,0-7.65.12-11.67.33s-8.46.36-12.69.39c-8.52.06-16.56-.09-24.87-.3l-24.54-.54a100.4,100.4,0,0,1-13.83-1.5c-4.62-.87-8-1.71-11.31-2.1a95.68,95.68,0,0,0-10.89-.66c-3.9-.09-7.62-.09-11.34.12s-7.8.66-12.3.84-8.79.15-13,0a10.46,10.46,0,0,1-.09-20.91h.09c3.9-.15,7.71-.42,11.4-.78s7.53-1.05,12-1.56a145,145,0,0,1,26.61-.6c4.74.39,9.39,1.35,12.81,1.83a74,74,0,0,0,10.47.69l12-.12,12.33,0c8,.06,16.2,0,24-.18,3.93-.12,7.65-.33,11.76-.6s8.52-.51,12.72-.57l6.3-.06,5.79-.09c3.84-.12,7.35-.36,11.31-.75s8.61-.78,13-.93,8.67-.15,12.54-.18,7.86-.15,11.85-.33,8.25-.33,12.45-.42,8.22-.12,12.66-.09,8.94.27,13.44.72,8,1,11.61,1.2,7.35.27,11.22.24,7.56-.15,11.19-.48,7.74-.87,12.3-1.17,8.88-.45,13.17-.45,8.79.09,13.35.45a102.65,102.65,0,0,1,14,2.07c2.37.54,4.77,1.2,7.2,2,1.2.39,2.4.84,3.63,1.32s2.73,1.17,4,1.83a55.39,55.39,0,0,1,13,9.63c3.48,3.36,6.36,6.66,9,9.57,1.32,1.44,2.58,2.82,3.78,4l2.19,2.22,2.34,2.46a107.27,107.27,0,0,1,8.88,10.86,81.51,81.51,0,0,1,7.38,12.69c.54,1.08,1,2.25,1.5,3.36l1.23,3.06c.81,2.07,1.59,4.17,2.34,6.36a95.5,95.5,0,0,1,3.63,13.71,76.16,76.16,0,0,1,1.35,14.7c0,4,0,7.89.15,11.76l.54,12.18q.18,6.44.18,12.69c0,4,.06,7.74.24,11.43s.63,7.41,1,11.91S1797.73,1730.89,1797.76,1735.18Z"/></g></svg>